<svg width="78" height="78" viewBox="0 0 78 78" fill="none" xmlns="http://www.w3.org/2000/svg">
<circle opacity="0.5" cx="39" cy="39" r="39" fill="url(#paint0_linear_1968_21659)"/>
<path fill-rule="evenodd" clip-rule="evenodd" d="M41 23.5C41 22.6716 40.3284 22 39.5 22C38.6716 22 38 22.6716 38 23.5V37H24.5C23.6716 37 23 37.6716 23 38.5C23 39.3284 23.6716 40 24.5 40H38V53.5C38 54.3284 38.6716 55 39.5 55C40.3284 55 41 54.3284 41 53.5V40H54.5C55.3284 40 56 39.3284 56 38.5C56 37.6716 55.3284 37 54.5 37H41V23.5Z" fill="white"/>
<defs>
<linearGradient id="paint0_linear_1968_21659" x1="45.9968" y1="290" x2="45.9968" y2="56" gradientUnits="userSpaceOnUse">
<stop offset="0.015625" stop-color="#1E1E1E" stop-opacity="0.5"/>
<stop offset="1" stop-color="#1E1E1E"/>
</linearGradient>
</defs>
</svg>
