<svg width="222" height="238" viewBox="0 0 222 238" fill="none" xmlns="http://www.w3.org/2000/svg">
      <path d="M217.3 68.5632C221.021 66.6634 222.517 62.0929 220.384 58.5013C210.856 42.4594 197.654 28.8614 181.824 18.8529C163.857 7.49448 143.167 1.17752 121.92 0.564018C100.674 -0.0494799 79.653 5.06308 61.0614 15.3659C42.4698 25.6688 26.9916 40.7826 16.2488 59.1235C5.50607 77.4645 -0.105735 98.3573 0.0015083 119.613C0.108751 140.868 5.93109 161.703 16.8584 179.935C27.7857 198.166 43.4156 213.123 62.1102 223.238C78.5829 232.15 96.9007 237.014 115.553 237.478C119.729 237.582 122.983 234.041 122.821 229.867C122.658 225.693 119.139 222.47 114.964 222.327C99.0265 221.781 83.3944 217.554 69.3088 209.933C53.0006 201.109 39.3659 188.062 29.8336 172.158C20.3012 156.253 15.2222 138.078 15.1286 119.536C15.0351 100.994 19.9305 82.7686 29.3019 66.769C38.6732 50.7694 52.1755 37.585 68.3938 28.5974C84.6121 19.6097 102.949 15.1498 121.484 15.685C140.018 16.2202 158.067 21.7308 173.74 31.6392C187.277 40.1973 198.61 51.7641 206.881 65.3983C209.048 68.9698 213.58 70.4629 217.3 68.5632Z" fill="url(#paint0_linear_1968_22512)" />
      <defs>
        <linearGradient id="paint0_linear_1968_22512" x1="118.5" y1="0.514648" x2="118.5" y2="219.107" gradientUnits="userSpaceOnUse">
          <stop stop-color="#4E72EF" />
          <stop offset="1" stop-color="#173EFF" stop-opacity="0" />
        </linearGradient>
      </defs>
    </svg>