<svg width="58" height="49" viewBox="0 0 58 49" fill="none" xmlns="http://www.w3.org/2000/svg">
<path d="M18.5179 20.2878C18.5179 20.8838 18.5818 21.3669 18.6935 21.7213C18.8213 22.0756 18.981 22.4622 19.2045 22.8809C19.2844 23.0098 19.3163 23.1386 19.3163 23.2514C19.3163 23.4124 19.2205 23.5735 19.0129 23.7345L18.0069 24.411C17.8632 24.5076 17.7195 24.556 17.5917 24.556C17.432 24.556 17.2723 24.4754 17.1127 24.3305C16.8891 24.0889 16.6975 23.8312 16.5378 23.5735C16.3781 23.2997 16.2184 22.9937 16.0428 22.6232C14.7972 24.105 13.2323 24.8459 11.348 24.8459C10.0067 24.8459 8.93678 24.4593 8.15433 23.6862C7.37187 22.9131 6.97266 21.8823 6.97266 20.5938C6.97266 19.2248 7.45171 18.1135 8.42579 17.276C9.39987 16.4385 10.6933 16.0197 12.3381 16.0197C12.881 16.0197 13.4399 16.068 14.0307 16.1485C14.6216 16.2291 15.2284 16.3579 15.8671 16.5029V15.3271C15.8671 14.1031 15.6116 13.2494 15.1166 12.7501C14.6056 12.2509 13.7433 12.0093 12.5137 12.0093C11.9548 12.0093 11.38 12.0737 10.7891 12.2186C10.1983 12.3636 9.62343 12.5408 9.06453 12.7663C8.80903 12.879 8.61741 12.9434 8.50563 12.9756C8.39385 13.0078 8.31401 13.024 8.25014 13.024C8.02658 13.024 7.9148 12.8629 7.9148 12.5247V11.7355C7.9148 11.4778 7.94673 11.2845 8.02658 11.1717C8.10642 11.059 8.25014 10.9463 8.47369 10.8335C9.03259 10.5436 9.70327 10.302 10.4857 10.1087C11.2682 9.89936 12.0985 9.80272 12.9768 9.80272C14.8771 9.80272 16.2663 10.2376 17.1606 11.1073C18.0388 11.9771 18.4859 13.2978 18.4859 15.0694V20.2878H18.5179ZM12.0347 22.736C12.5616 22.736 13.1046 22.6393 13.6794 22.4461C14.2543 22.2528 14.7653 21.8984 15.1964 21.4153C15.4519 21.1092 15.6436 20.771 15.7394 20.3845C15.8352 19.9979 15.899 19.5308 15.899 18.9832V18.3068C15.436 18.194 14.9409 18.0974 14.4299 18.033C13.919 17.9685 13.4239 17.9363 12.9289 17.9363C11.859 17.9363 11.0766 18.1457 10.5496 18.5806C10.0226 19.0154 9.76714 19.6275 9.76714 20.4328C9.76714 21.1898 9.95877 21.7535 10.358 22.14C10.7412 22.5427 11.3001 22.736 12.0347 22.736ZM24.8574 24.4754C24.5699 24.4754 24.3783 24.4271 24.2506 24.3144C24.1228 24.2177 24.011 23.9922 23.9152 23.6862L20.1626 11.2362C20.0668 10.914 20.0189 10.7047 20.0189 10.5919C20.0189 10.3342 20.1467 10.1893 20.4022 10.1893H21.9671C22.2705 10.1893 22.4781 10.2376 22.5898 10.3503C22.7176 10.447 22.8134 10.6725 22.9092 10.9785L25.5919 21.6407L28.083 10.9785C28.1629 10.6563 28.2587 10.447 28.3864 10.3503C28.5142 10.2537 28.7377 10.1893 29.0251 10.1893H30.3026C30.606 10.1893 30.8136 10.2376 30.9414 10.3503C31.0691 10.447 31.1809 10.6725 31.2448 10.9785L33.7678 21.7696L36.5303 10.9785C36.6262 10.6563 36.7379 10.447 36.8497 10.3503C36.9775 10.2537 37.1851 10.1893 37.4725 10.1893H38.9576C39.2131 10.1893 39.3568 10.3181 39.3568 10.5919C39.3568 10.6725 39.3408 10.753 39.3248 10.8496C39.3089 10.9463 39.2769 11.0751 39.2131 11.2523L35.3646 23.7023C35.2688 24.0245 35.1571 24.2338 35.0293 24.3305C34.9016 24.4271 34.694 24.4915 34.4225 24.4915H33.0492C32.7458 24.4915 32.5382 24.4432 32.4105 24.3305C32.2827 24.2177 32.1709 24.0083 32.1071 23.6862L29.632 13.2978L27.1728 23.6701C27.093 23.9922 26.9972 24.2016 26.8694 24.3144C26.7417 24.4271 26.5181 24.4754 26.2307 24.4754H24.8574ZM45.3769 24.9103C44.5465 24.9103 43.7162 24.8137 42.9177 24.6204C42.1193 24.4271 41.4965 24.2177 41.0814 23.9761C40.8259 23.8312 40.6502 23.6701 40.5863 23.5252C40.5225 23.3802 40.4905 23.2191 40.4905 23.0742V22.2528C40.4905 21.9145 40.6183 21.7535 40.8578 21.7535C40.9536 21.7535 41.0494 21.7696 41.1452 21.8018C41.2411 21.834 41.3848 21.8984 41.5445 21.9629C42.0874 22.2045 42.6782 22.3977 43.301 22.5266C43.9397 22.6554 44.5625 22.7199 45.2012 22.7199C46.2073 22.7199 46.9897 22.5427 47.5326 22.1884C48.0756 21.834 48.363 21.3186 48.363 20.6583C48.363 20.2073 48.2193 19.8369 47.9319 19.5308C47.6444 19.2248 47.1015 18.951 46.319 18.6933L44.0036 17.9685C42.8379 17.5981 41.9756 17.0505 41.4486 16.3257C40.9217 15.617 40.6502 14.8278 40.6502 13.9903C40.6502 13.3139 40.7939 12.7179 41.0814 12.2025C41.3688 11.6871 41.752 11.2362 42.2311 10.8818C42.7102 10.5114 43.2531 10.2376 43.8918 10.0443C44.5306 9.85104 45.2012 9.77051 45.9039 9.77051C46.2552 9.77051 46.6224 9.78661 46.9737 9.83493C47.341 9.88325 47.6764 9.94768 48.0117 10.0121C48.3311 10.0926 48.6345 10.1732 48.9219 10.2698C49.2093 10.3664 49.4329 10.4631 49.5926 10.5597C49.8161 10.6886 49.9758 10.8174 50.0716 10.9624C50.1674 11.0912 50.2153 11.2684 50.2153 11.4939V12.2509C50.2153 12.5891 50.0876 12.7663 49.8481 12.7663C49.7203 12.7663 49.5127 12.7018 49.2413 12.573C48.3311 12.1542 47.3091 11.9448 46.1753 11.9448C45.2651 11.9448 44.5465 12.0898 44.0515 12.3958C43.5565 12.7018 43.301 13.1689 43.301 13.8293C43.301 14.2802 43.4607 14.6668 43.78 14.9728C44.0994 15.2788 44.6902 15.5848 45.5366 15.8586L47.8041 16.5834C48.9538 16.9539 49.7842 17.4693 50.2792 18.1296C50.7742 18.79 51.0138 19.5469 51.0138 20.3845C51.0138 21.077 50.8701 21.7052 50.5986 22.2528C50.3112 22.8004 49.9279 23.2836 49.4329 23.6701C48.9379 24.0728 48.347 24.3627 47.6604 24.5721C46.9418 24.7976 46.1913 24.9103 45.3769 24.9103Z" fill="white"/>
<path fill-rule="evenodd" clip-rule="evenodd" d="M48.3948 32.7379C43.1412 36.6517 35.5082 38.7294 28.9452 38.7294C19.7473 38.7294 11.4597 35.2988 5.20001 29.5972C4.70498 29.1462 5.1521 28.5342 5.74294 28.8885C12.5136 32.8507 20.8651 35.2505 29.5041 35.2505C35.3326 35.2505 41.7359 34.0264 47.6283 31.5138C48.5066 31.1112 49.2571 32.0937 48.3948 32.7379Z" fill="#FF9900"/>
<path fill-rule="evenodd" clip-rule="evenodd" d="M50.5831 30.2253C49.9124 29.3556 46.1439 29.8065 44.4352 30.0159C43.9242 30.0803 43.8444 29.6294 44.3075 29.2911C47.3096 27.1651 52.2438 27.7771 52.8187 28.4858C53.3936 29.2106 52.659 34.1874 49.8486 36.5711C49.4174 36.9416 49.0022 36.7483 49.1938 36.2651C49.8326 34.6706 51.2538 31.0789 50.5831 30.2253Z" fill="#FF9900"/>
</svg>
