<svg width="80" height="23" viewBox="0 0 80 23" fill="none" xmlns="http://www.w3.org/2000/svg">
<path d="M13.7656 21.7718C16.1048 21.3602 18.4438 20.9471 20.7824 20.5325L20.8483 20.5185L17.239 16.2343C15.254 13.878 13.6299 11.941 13.6299 11.9299C13.6299 11.9088 17.3566 1.66704 17.3777 1.63053C17.3846 1.61846 19.9208 5.9881 23.5256 12.2231C26.9004 18.0602 29.6827 22.873 29.7086 22.9181L29.7556 23L18.2854 22.9985L6.81494 22.997L13.7656 21.7718ZM57.7532 20.7356C56.007 20.624 54.9917 19.6318 54.7226 17.7746C54.6509 17.2807 54.6506 17.2677 54.6434 14.0607L54.6362 10.9565H56.1818L56.1878 13.9588C56.1933 16.665 56.1967 16.9823 56.2226 17.1725C56.3278 17.9451 56.5373 18.4647 56.8938 18.8375C57.1793 19.1359 57.5134 19.3108 57.9758 19.4034C58.1941 19.4472 58.8149 19.4472 59.0137 19.4036C59.4825 19.3007 59.8583 19.097 60.1899 18.7663C60.5678 18.3894 60.8472 17.8546 60.9825 17.2501L61.028 17.0461L61.0332 14.0183L61.0382 10.9905H62.616V20.51H61.0545V19.7549C61.0545 19.2418 61.0489 19.0015 61.037 19.0056C61.0273 19.0087 60.9871 19.07 60.9478 19.1417C60.6786 19.6312 60.2304 20.0792 59.7392 20.3489C59.1504 20.6722 58.56 20.7872 57.7532 20.7356ZM75.4752 20.7281C74.8588 20.6817 74.2098 20.4702 73.6795 20.1427C72.5615 19.4528 71.9001 18.3152 71.7063 16.7496C71.6393 16.208 71.6313 15.4802 71.6872 15.0199C71.8121 13.9914 72.2171 12.9817 72.7939 12.2608C72.9417 12.0761 73.2772 11.7414 73.4622 11.594C73.9609 11.1961 74.5446 10.918 75.1682 10.7812C75.5299 10.7023 76.1672 10.6652 76.5515 10.7008C77.5172 10.7901 78.4022 11.2438 79.0036 11.9579C79.6148 12.6835 79.9508 13.6974 79.9937 14.9457C80.0004 15.1414 80.002 15.4843 79.9973 15.7079L79.9887 16.1145L76.6068 16.1187L73.2247 16.1229V16.2736C73.2247 16.7321 73.3363 17.2543 73.5295 17.6986C73.6959 18.0818 73.9826 18.5002 74.2174 18.7026C74.6986 19.1178 75.2874 19.3663 75.9319 19.4261C76.1708 19.4482 76.7801 19.4248 77.0522 19.3831C77.8292 19.2639 78.5678 18.9599 79.1642 18.5136C79.2133 18.4763 79.2631 18.44 79.3135 18.4045C79.3309 18.3937 79.3352 18.5308 79.3347 19.1076L79.3341 19.824L79.1743 19.9227C78.4994 20.3391 77.7264 20.6066 76.9081 20.7066C76.6636 20.7365 75.7674 20.7501 75.4752 20.7281ZM78.4187 14.685C78.4187 13.9169 78.0943 13.0637 77.6353 12.6244C77.3078 12.3109 76.9119 12.1193 76.4411 12.0466C76.2184 12.0122 75.7491 12.0254 75.5144 12.0727C75.018 12.1728 74.6076 12.3905 74.2494 12.7436C73.8727 13.1152 73.5901 13.5666 73.4125 14.0807C73.3485 14.2657 73.2739 14.5693 73.2507 14.7382L73.2395 14.8186H78.4185L78.4187 14.685ZM32.5422 20.4889C32.5461 20.4772 33.6946 17.4664 35.0943 13.7982L37.6393 7.12852H39.2746L39.3425 7.30202C39.5497 7.83263 44.4373 20.4956 44.4373 20.5022C44.4373 20.5064 44.0457 20.51 43.5674 20.5099L42.6975 20.5097L41.993 18.6382L41.2885 16.7665H35.6161L35.5914 16.83C35.5778 16.865 35.2769 17.7072 34.9225 18.7014L34.2785 20.5094L33.4066 20.5097C32.7166 20.5099 32.5364 20.5057 32.5422 20.4889ZM40.771 15.3382C40.771 15.3352 40.2969 14.0528 39.7174 12.4883C38.6334 9.56144 38.573 9.38538 38.4872 8.91542C38.4472 8.69515 38.4268 8.68911 38.4029 8.89007C38.3859 9.0337 38.3122 9.35536 38.255 9.53368C38.2267 9.62224 37.7387 10.9591 37.1704 12.5048C36.602 14.0503 36.1371 15.3212 36.1371 15.3292C36.1371 15.3372 37.1797 15.3437 38.454 15.3437C39.7283 15.3437 40.771 15.3411 40.771 15.3382ZM44.9634 20.2662V20.0226L47.7893 16.146L50.615 12.2694L48.0565 12.2608L45.4981 12.2524L45.4936 11.6045L45.4892 10.9565H52.8901V11.3942L50.0641 15.2919C48.5096 17.4358 47.2379 19.1934 47.2379 19.1978C47.2379 19.2022 48.4944 19.2058 50.0301 19.2058H52.8222V20.51H44.9634V20.2662ZM65.6997 20.4987C65.6935 20.4925 65.6883 18.343 65.6883 15.7221V10.9565H67.233V11.939C67.233 12.4794 67.2395 12.9215 67.2476 12.9215C67.2556 12.9215 67.2931 12.833 67.3311 12.7249C67.5048 12.2296 67.8058 11.7667 68.1939 11.3987C68.5432 11.0674 68.9427 10.8692 69.4141 10.7933C69.5465 10.7722 69.6585 10.7679 69.9232 10.7749C70.2558 10.7835 70.4297 10.8078 70.632 10.8737L70.6955 10.8945V12.4945L70.5131 12.4034C70.1908 12.2424 69.8727 12.1786 69.4904 12.1985C69.2415 12.2113 69.0783 12.2433 68.8793 12.3177C68.4755 12.4666 68.133 12.7458 67.9062 13.111C67.5702 13.6456 67.3308 14.3328 67.2602 14.9645C67.2475 15.0778 67.2401 16.001 67.237 17.8209L67.2325 20.51H66.4718C66.0533 20.51 65.7059 20.5049 65.6997 20.4987ZM0 20.4652C0 20.4592 1.70064 17.5132 3.77923 13.9184L7.55845 7.38243L11.9627 3.69412C14.3849 1.66553 16.3734 0.00310006 16.3814 8.267e-05C16.3892 -0.00293472 16.3575 0.0770262 16.3105 0.177807C16.2636 0.278739 14.1115 4.88509 11.5282 10.4143L6.83097 20.4675L3.41548 20.4719C1.53706 20.4743 0 20.4713 0 20.4652Z" fill="#0089D6"/>
</svg>
