<svg width="88" height="49" viewBox="0 0 88 49" fill="none" xmlns="http://www.w3.org/2000/svg">
<path d="M48.1613 6.96238H49.1195L51.8505 4.23133L51.9844 3.07139C46.9014 -1.4156 39.144 -0.930881 34.657 4.15211C33.4103 5.5629 32.5068 7.2434 32.0127 9.06159C32.3164 8.9371 32.654 8.91636 32.9708 9.005L38.4329 8.10346C38.4329 8.10346 38.7102 7.64325 38.8554 7.67154C41.2847 5.00274 45.3737 4.69153 48.1802 6.96238H48.1613Z" fill="#EA4335"/>
<path d="M55.7426 9.0614C55.1145 6.74906 53.8263 4.6706 52.0345 3.08252L48.202 6.91504C49.8203 8.23718 50.7426 10.2308 50.703 12.3206V13.0014C52.5872 13.0014 54.1149 14.5292 54.1149 16.4134C54.1149 18.2975 52.5872 19.8253 50.703 19.8253H43.8791L43.1982 20.5156V24.6084L43.8791 25.2893H50.703C55.603 25.327 59.6072 21.3851 59.6449 16.485C59.6675 13.5088 58.202 10.7249 55.7426 9.0614Z" fill="#4285F4"/>
<path d="M37.045 25.2456H43.8688V19.7835H37.045C36.5583 19.7835 36.0793 19.6779 35.636 19.4761L34.6779 19.7741L31.928 22.5051L31.6885 23.4633C33.2294 24.6289 35.1117 25.255 37.045 25.2456Z" fill="#34A853"/>
<path d="M37.045 7.52839C32.1431 7.55669 28.1955 11.5533 28.2238 16.4552C28.2408 19.1919 29.5176 21.7683 31.6885 23.4356L35.6455 19.4786C33.9292 18.7034 33.1653 16.6816 33.9405 14.9652C34.7157 13.2489 36.7376 12.485 38.4539 13.2602C39.2102 13.6016 39.8156 14.2089 40.1589 14.9652L44.1159 11.0082C42.4335 8.80527 39.8156 7.51708 37.045 7.52839Z" fill="#FBBC05"/>
<path d="M6.12099 45.3832C4.50213 45.4038 2.94629 44.7647 1.80962 43.6126C0.635666 42.5094 -0.0201033 40.9639 0.000469908 39.3527C-0.0188174 37.7416 0.636951 36.1973 1.80962 35.0928C2.94115 33.9291 4.49828 33.2772 6.12099 33.2901C7.66654 33.2695 9.15681 33.87 10.2562 34.9565L9.09381 36.1394C8.29788 35.3692 7.22808 34.9475 6.12099 34.9629C4.95989 34.9488 3.84508 35.4232 3.05044 36.2693C2.22494 37.0884 1.76976 38.2096 1.78905 39.372C1.77876 40.5215 2.23394 41.626 3.05044 42.4361C4.7323 44.1128 7.44409 44.145 9.16581 42.5081C9.67885 41.9475 9.9926 41.2326 10.0607 40.4765H6.14027V38.805H11.6873C11.7413 39.1418 11.7632 39.4826 11.7529 39.8246C11.8223 41.2506 11.3054 42.6431 10.3218 43.6795C9.22753 44.8175 7.69998 45.4372 6.12099 45.3832ZM19.0178 44.2723C17.4709 45.7548 15.0304 45.7548 13.4836 44.2723C12.734 43.5458 12.3251 42.539 12.3534 41.4962C12.3251 40.4534 12.7353 39.4466 13.4836 38.7201C15.0317 37.2414 17.4697 37.2414 19.0178 38.7201C19.7661 39.4466 20.1763 40.4534 20.148 41.4962C20.175 42.5403 19.7623 43.5471 19.0114 44.2723H19.0178ZM14.7051 43.1819C15.5036 44.0357 16.8435 44.0794 17.6972 43.2796C17.7307 43.2475 17.7641 43.2153 17.795 43.1819C18.2309 42.7306 18.4662 42.1237 18.4482 41.4962C18.4675 40.8674 18.2321 40.2566 17.795 39.804C16.9733 38.9477 15.6129 38.9181 14.7553 39.7397C14.7334 39.7603 14.7116 39.7822 14.691 39.804C14.2538 40.2566 14.0185 40.8674 14.0378 41.4962C14.0211 42.1237 14.259 42.7319 14.6974 43.1819H14.7051ZM27.5235 44.2723C25.9767 45.7548 23.5362 45.7548 21.9893 44.2723C21.2397 43.5458 20.8308 42.539 20.8591 41.4962C20.8308 40.4534 21.241 39.4466 21.9893 38.7201C23.5362 37.2375 25.9767 37.2375 27.5235 38.7201C28.2719 39.4466 28.682 40.4534 28.6537 41.4962C28.6833 42.539 28.2731 43.5458 27.5235 44.2723ZM23.2121 43.1819C24.0106 44.0357 25.3505 44.0794 26.2042 43.2796C26.2377 43.2475 26.2711 43.2153 26.302 43.1819C26.7379 42.7306 26.9732 42.1237 26.9552 41.4962C26.9745 40.8674 26.7391 40.2566 26.302 39.804C25.4803 38.9477 24.1199 38.9181 23.2636 39.7397C23.2417 39.7603 23.2199 39.7822 23.1993 39.804C22.7621 40.2566 22.5268 40.8674 22.5461 41.4962C22.5294 42.1237 22.7672 42.7319 23.2057 43.1819H23.2121ZM33.1155 48.8717C32.3325 48.8961 31.5648 48.6518 30.9399 48.1786C30.3854 47.7616 29.9485 47.2077 29.6721 46.5713L31.1611 45.9503C31.3231 46.3309 31.5764 46.6652 31.8992 46.9236C32.2438 47.2014 32.6771 47.348 33.1207 47.3351C33.689 47.3698 34.2445 47.1551 34.6431 46.7475C35.0366 46.273 35.2307 45.6635 35.1857 45.0489V44.487H35.1266C34.6212 45.0862 33.8639 45.4128 33.0821 45.3691C32.0907 45.3716 31.1431 44.9602 30.4693 44.2324C29.739 43.5111 29.3352 42.5223 29.3519 41.4949C29.3339 40.4624 29.7377 39.4672 30.4693 38.7381C31.1418 38.0077 32.0895 37.5924 33.0821 37.595C33.4974 37.5937 33.9089 37.6863 34.2844 37.8624C34.6097 38.0039 34.899 38.216 35.1343 38.4835H35.1934V37.8624H36.8136V44.82C36.8997 45.9323 36.5243 47.0316 35.7746 47.8584C35.061 48.5412 34.1031 48.9064 33.1155 48.8717ZM33.2338 43.8544C33.7983 43.8672 34.3396 43.6268 34.71 43.2012C35.1124 42.7396 35.3259 42.1417 35.304 41.5283C35.3284 40.9047 35.1163 40.2965 34.71 39.8233C34.3396 39.3964 33.7983 39.1573 33.2338 39.1701C32.6539 39.1586 32.0972 39.3964 31.705 39.8233C31.273 40.2798 31.0377 40.888 31.0518 41.5155C31.0389 42.1378 31.273 42.7396 31.705 43.1883C32.0946 43.6191 32.6514 43.8621 33.2338 43.8544ZM39.6951 33.7285V45.1479H37.9901V33.7285H39.6951ZM44.3729 45.3832C43.3404 45.4102 42.3439 45.0052 41.6225 44.2658C40.8909 43.5329 40.491 42.5313 40.518 41.4962C40.4795 40.4585 40.8639 39.4492 41.5827 38.6995C42.2616 37.9846 43.2105 37.5886 44.1955 37.6079C44.6442 37.6027 45.0878 37.6901 45.5019 37.8624C45.8748 38.0129 46.2142 38.2353 46.501 38.5156C46.7478 38.7535 46.9664 39.0184 47.1541 39.3064C47.3059 39.5494 47.4345 39.8053 47.5399 40.0702L47.7161 40.5151L42.4905 42.665C42.8145 43.4082 43.5616 43.8762 44.3716 43.8415C45.1547 43.8441 45.8812 43.4339 46.2862 42.764L47.5926 43.6461C47.2593 44.1236 46.8323 44.5283 46.3377 44.8355C45.7513 45.2058 45.0673 45.3961 44.3729 45.3832ZM42.1909 41.3779L45.6665 39.9339C45.5597 39.6793 45.3681 39.4697 45.1238 39.3399C44.8512 39.1856 44.5426 39.1071 44.2289 39.111C43.6979 39.1251 43.1925 39.3476 42.8248 39.732C42.3786 40.1589 42.1459 40.762 42.1909 41.3779Z" fill="#BDBDBD"/>
<path d="M56.6478 45.3837C53.6749 45.4352 51.2242 43.0667 51.1727 40.0939C51.1714 40.0218 51.1714 39.9486 51.174 39.8766C51.1046 36.9037 53.4589 34.4388 56.4304 34.3694C56.5025 34.3681 56.5757 34.3681 56.6478 34.3681C58.1342 34.3218 59.5614 34.957 60.5219 36.0924L59.5807 37.0066C58.8748 36.1181 57.787 35.6205 56.6542 35.6668C55.5677 35.6423 54.5171 36.0628 53.7469 36.8292C52.9459 37.6354 52.5177 38.7386 52.564 39.874C52.5164 41.0094 52.9459 42.1126 53.7469 42.9188C54.5171 43.6864 55.5677 44.1056 56.6542 44.0812C57.9194 44.0953 59.1217 43.5321 59.9202 42.5523L60.8614 43.4936C60.3689 44.0825 59.7504 44.5531 59.0522 44.872C58.2987 45.2217 57.4771 45.3966 56.6478 45.3837Z" fill="#838383"/>
<path d="M63.3898 45.1481H62.0371V34.5967H63.3898V45.1481Z" fill="#838383"/>
<path d="M65.5979 38.7976C67.0728 37.3331 69.4541 37.3331 70.9289 38.7976C71.6284 39.537 72.0052 40.5245 71.9743 41.5416C72.0052 42.5587 71.6284 43.5462 70.9289 44.2855C69.4541 45.7501 67.0728 45.7501 65.5979 44.2855C64.8984 43.5462 64.5217 42.5587 64.5525 41.5416C64.5217 40.5245 64.8971 39.537 65.5979 38.7976ZM66.6034 43.4369C67.4688 44.3511 68.9115 44.391 69.827 43.5256C69.8578 43.4973 69.8874 43.4665 69.9157 43.4369C70.3927 42.9251 70.6448 42.2423 70.6152 41.5429C70.6461 40.8434 70.394 40.1606 69.9157 39.6488C69.0504 38.7346 67.6077 38.6948 66.6922 39.5601C66.6613 39.5884 66.6317 39.6193 66.6034 39.6488C66.1264 40.1606 65.8744 40.8434 65.9039 41.5429C65.8769 42.2411 66.1315 42.9213 66.6099 43.4304L66.6034 43.4369Z" fill="#838383"/>
<path d="M79.4674 45.1482H78.161V44.1491H78.1225C77.8897 44.5284 77.5605 44.8396 77.1684 45.0505C76.7621 45.2858 76.2992 45.4105 75.8285 45.4092C75.0545 45.462 74.2997 45.1585 73.7777 44.5863C73.2826 43.9601 73.0345 43.1745 73.0782 42.3786V37.936H74.4309V42.1304C74.4309 43.4766 75.0249 44.1491 76.2143 44.1491C76.7505 44.1658 77.261 43.9228 77.5863 43.4959C77.9373 43.0523 78.1237 42.5007 78.116 41.9349V37.936H79.4687V45.1482H79.4674Z" fill="#838383"/>
<path d="M84.0609 45.3834C83.1325 45.386 82.2492 44.9836 81.6435 44.2789C80.9659 43.5306 80.6033 42.5508 80.6303 41.5414C80.6033 40.532 80.9659 39.5522 81.6435 38.8039C82.2492 38.1005 83.1325 37.6968 84.0609 37.6994C84.5752 37.6917 85.0831 37.8125 85.537 38.0517C85.9369 38.2523 86.2751 38.557 86.5168 38.9338H86.576L86.5168 37.9347V34.5967H87.8695V45.1481H86.5631V44.1491H86.5039C86.2622 44.5258 85.9241 44.8305 85.5242 45.0311C85.0741 45.2677 84.5714 45.3899 84.0609 45.3834ZM84.2833 44.1491C84.9018 44.1581 85.4946 43.9009 85.9099 43.4431C86.3689 42.9198 86.6042 42.237 86.5631 41.5414C86.6042 40.8471 86.3689 40.163 85.9099 39.6397C85.0896 38.737 83.6931 38.6715 82.7905 39.4931C82.7391 39.5394 82.6902 39.5895 82.6439 39.6397C82.1836 40.1591 81.9483 40.8406 81.9907 41.5337C81.9483 42.2267 82.1836 42.9082 82.6439 43.4277C83.0605 43.8957 83.6584 44.1581 84.2833 44.1491Z" fill="#838383"/>
</svg>
