<svg width="76" height="48" viewBox="0 0 76 48" fill="none" xmlns="http://www.w3.org/2000/svg">
<path d="M37.4157 2.82384C37.4157 2.11308 37.4157 1.40232 37.3965 0.672344C37.3965 0.345777 37.5886 0.172888 37.8191 0H38.1072C38.4338 0.192098 38.5299 0.461033 38.5299 0.82602C38.5107 1.69046 38.5299 2.5549 38.5299 3.41935C38.5299 3.59224 38.5683 3.78434 38.4338 3.93801C38.1457 3.61145 38.3378 3.22725 38.2801 2.88147C38.2609 2.42044 38.2801 1.94019 38.3762 1.47915C38.357 1.82493 38.2993 1.86335 37.6846 1.65205C37.6462 1.90177 37.7038 2.1515 37.6654 2.40123C37.627 2.55491 37.7038 2.78542 37.4157 2.82384Z" fill="#33D9DD"/>
<path d="M28.7511 26.6436C26.4843 26.3939 24.8323 25.2413 23.7373 23.2627C23.7757 22.9361 24.0062 23.109 24.1215 23.1474C24.4096 23.2627 24.6786 23.4164 24.9283 23.5893C24.9091 23.474 24.6978 23.3203 24.9475 23.2243C25.8888 24.4153 27.0606 25.2221 28.559 25.5295C28.7511 25.6831 28.9816 25.5102 29.1737 25.6255C29.1545 25.8752 28.9432 25.7984 28.7895 25.8368C28.8087 25.8176 28.8471 25.8368 28.8663 25.856C29.5195 26.4515 30.3263 26.4515 31.1331 26.4131C31.2483 26.4131 31.3636 26.4131 31.4789 26.4707C31.5365 26.4899 31.5749 26.5476 31.5941 26.586C31.5941 26.6436 31.5365 26.7013 31.4789 26.7013C30.5952 26.6628 29.6731 26.7205 28.7511 26.6436Z" fill="#0062FE"/>
<path d="M26.9267 10.6617C26.773 10.6617 26.6001 10.6041 26.4849 10.508L24.0836 9.12493C23.7379 8.91362 23.4689 8.64468 23.7186 8.24127C23.9492 7.81866 24.2949 7.93391 24.6215 8.12601C25.4475 8.60626 26.2736 9.06729 27.0996 9.54754C27.3685 9.70122 27.5414 9.93174 27.4454 10.2583C27.4069 10.508 27.1764 10.6809 26.9267 10.6617Z" fill="#0C9EEF"/>
<path d="M29.1756 25.6455C28.9835 25.5879 28.753 25.7224 28.5801 25.5303C30.9813 25.6263 33.3825 25.5495 35.7838 25.5879C35.9567 25.5879 36.1487 25.6071 36.3216 25.6263C36.629 25.78 36.9556 25.6455 37.2629 25.7032C37.3974 25.7416 37.5319 25.8184 37.6471 25.9337C38.0889 26.2987 38.5884 26.5292 39.1839 26.4139C39.3568 26.4331 39.5489 26.3947 39.6449 26.606C39.5297 26.7789 39.3376 26.7021 39.1839 26.7021C38.4731 26.7021 37.7624 26.7021 37.0516 26.7021C36.8979 26.6637 36.7635 26.6444 36.6098 26.6637C35.8606 26.7405 35.1883 26.6444 34.6312 26.0681C34.4583 25.8953 34.2278 25.9337 34.0165 25.9145C32.4797 25.7992 30.9429 25.8184 29.4061 25.7992C29.3293 25.7608 29.2332 25.7032 29.1756 25.6455Z" fill="#0676FC"/>
<path d="M37.3153 25.7217C36.9888 25.6641 36.6238 25.8562 36.3164 25.6065C37.6227 25.568 38.9289 25.568 40.2352 25.6065C40.6002 25.7409 40.9844 25.6641 41.3686 25.6641C41.5991 25.6449 41.8296 25.7217 42.0217 25.8754C42.3867 26.2404 42.9054 26.4325 43.424 26.3941C43.5585 26.3748 43.8851 26.2788 43.8082 26.663C42.5596 26.663 41.311 26.7014 40.0623 26.6246C39.9086 26.6438 39.755 26.6054 39.6397 26.5285H39.1403C38.564 26.1827 38.0069 25.7986 37.3153 25.7217Z" fill="#0080F9"/>
<path d="M31.2096 3.70723C31.4785 4.14906 31.7475 4.59088 31.9972 5.03271C32.1893 5.35928 32.1701 5.70505 31.8243 5.89715C31.4785 6.08925 31.1904 5.91637 30.9983 5.5898C30.6141 4.89825 30.2299 4.2259 29.8457 3.53435C29.9418 3.13094 30.2107 3.30383 30.4028 3.38067C30.6909 3.49593 30.9599 3.61118 31.2096 3.70723Z" fill="#20BCE6"/>
<path d="M44.9609 25.6258C46.0175 25.6066 47.074 25.4145 48.0537 25.0303C48.5916 25.0495 48.9566 25.3376 48.9758 25.7218C48.3227 26.1637 47.5543 26.4518 46.7667 26.5671C46.7475 26.5286 46.7475 26.471 46.7859 26.4326C46.8435 26.3942 46.9011 26.3942 47.074 26.3942C46.8243 26.3942 46.5938 26.2789 46.4401 26.106C46.1904 25.8371 45.8062 25.7218 45.4412 25.8179C45.2683 25.8563 45.0186 25.9523 44.9609 25.6258Z" fill="#0290F3"/>
<path d="M43.8488 26.6252C43.7335 26.5292 43.5798 26.4907 43.4261 26.5484C42.8883 26.6444 42.3312 26.4523 41.9662 26.0489C41.678 25.7416 41.3515 25.7416 40.9865 25.7416C40.7368 25.7416 40.4486 25.8568 40.2373 25.6455C41.0825 25.6071 41.9086 25.6071 42.7538 25.6455C42.7922 25.7031 42.8498 25.7224 42.9267 25.7031C43.6374 25.6263 44.2906 25.7224 44.8285 26.2794C45.0206 26.4907 45.3279 26.3947 45.5968 26.4139C45.8082 26.4331 46.0771 26.3179 46.1731 26.6444L45.9042 26.6636C45.2127 26.7213 44.5403 26.7213 43.8488 26.6252Z" fill="#0185F7"/>
<path d="M46.1733 26.6246C46.058 26.5285 45.9043 26.4901 45.7506 26.5285C45.1936 26.6054 44.7133 26.4901 44.3291 26.0483C44.041 25.7217 43.676 25.6833 43.2534 25.7217C43.0805 25.7409 42.8884 25.7985 42.7539 25.6065C43.4839 25.568 44.2331 25.568 44.963 25.6065C45.0207 25.7217 45.1551 25.7601 45.2704 25.7025C45.9427 25.4144 46.3461 25.8178 46.8264 26.1827C47.1145 26.3941 46.8648 26.4325 46.788 26.5285C46.5959 26.6438 46.3846 26.663 46.1733 26.6246Z" fill="#018AF5"/>
<path d="M51.7791 9.12403L50.3768 9.93084C49.7621 9.854 49.5316 9.68111 49.4355 9.22008C49.9158 8.8743 50.4345 8.58615 50.9723 8.33643C51.3565 8.45168 51.6639 8.73983 51.7791 9.12403Z" fill="#2FD5DD"/>
<path d="M24.9653 23.2248C24.8309 23.4938 25.1767 23.5514 25.1959 23.8587C24.8885 23.6859 24.6196 23.5322 24.3506 23.3977C24.1585 23.3017 23.9856 23.0904 23.7359 23.2825C23.467 22.8214 23.198 22.3796 23.1404 21.8417C23.0059 21.4383 23.2365 21.4383 23.467 21.592C23.7167 21.7457 23.9472 21.8801 24.2354 21.8225C24.3314 22.3604 24.7732 22.7254 24.9653 23.2248Z" fill="#0166FE"/>
<path d="M48.9768 25.7222C48.8423 25.2612 48.3428 25.2804 48.0547 25.0306L49.6491 24.0317C49.8988 24.2815 50.3599 24.3583 50.3791 24.8385C49.9565 25.1843 49.5338 25.5493 48.9768 25.7222Z" fill="#0797F1"/>
<path d="M50.9764 15.3107L50.3809 14.5039C50.4385 14.0237 50.8035 13.8892 51.1877 13.7739C51.6871 14.3118 52.0905 14.9265 52.3787 15.5797C52.2442 15.8678 52.0329 15.7525 51.8408 15.6757C51.5527 15.5604 51.2645 15.4068 50.9764 15.3107Z" fill="#24C3E4"/>
<path d="M24.258 21.8026C23.9699 22.1676 23.7586 21.8795 23.5089 21.7066C23.3552 21.5913 23.1439 21.38 23.1439 21.8026C22.9902 21.3992 22.9134 20.9574 22.9326 20.5156C22.8749 19.9777 22.8941 19.9585 23.6049 19.9585C23.8931 19.9585 24.0083 20.1122 23.9891 20.4003C23.9507 20.5732 23.9699 20.7269 24.0275 20.8806L24.258 21.8026Z" fill="#016AFE"/>
<path d="M43.8519 26.6252L45.9073 26.6444C45.6768 26.7213 45.4463 26.7405 45.2157 26.7021C39.9715 26.7021 34.7464 26.7021 29.5021 26.7021C29.2524 26.7021 29.0027 26.7405 28.7529 26.6444L31.596 26.6252C31.9033 26.4139 32.2299 26.51 32.5565 26.51C32.9407 26.4908 33.3249 26.51 33.7091 26.4908C34.8232 26.4331 35.899 26.6252 37.0132 26.6252C37.7623 26.6252 38.5307 26.6252 39.2799 26.6444C39.4144 26.6444 39.5489 26.6637 39.6449 26.5484C41.0472 26.6252 42.4495 26.6637 43.8519 26.6252Z" fill="#067CFA"/>
<path d="M52.9176 20.5351C52.86 20.9769 52.7831 21.4188 52.495 21.803C52.1108 21.7453 51.7074 21.7645 51.5537 21.2843C51.7842 20.612 51.9379 19.9012 51.9955 19.1904C52.1684 19.1904 52.1876 19.3249 52.1876 19.4209C52.1684 19.8436 52.3989 20.0933 52.7639 20.2278C52.8792 20.247 52.9368 20.3622 52.9176 20.4583C52.9368 20.4967 52.9368 20.5159 52.9176 20.5351Z" fill="#17ADEB"/>
<path d="M48.8621 11.9673C49.6881 12.3131 50.4373 12.8702 50.9944 13.5617C51.0904 13.9843 50.687 14.0035 50.4757 14.1764C50.322 14.2917 50.1875 14.0804 50.0915 13.9651C49.6689 13.4657 49.2655 12.9278 48.8236 12.4283C48.5931 12.1402 48.6123 12.0633 48.8621 11.9673Z" fill="#28C7E3"/>
<path d="M31.2078 3.70835C30.9197 3.90045 30.7084 3.66993 30.4971 3.53546C30.2858 3.401 30.0937 3.30495 29.8824 3.53546C29.7479 3.34337 29.6326 3.15127 29.5174 2.93996C29.3829 2.67102 29.479 2.34446 29.7479 2.20999C30.0553 2.0371 30.305 2.15236 30.4779 2.40209C30.7468 2.84391 30.9581 3.28573 31.2078 3.70835Z" fill="#24C1E5"/>
<path d="M44.9443 3.30469C45.1172 2.99733 45.2709 2.68998 45.463 2.40183C45.6359 2.1521 45.9048 2.01764 46.193 2.20973C46.4619 2.3442 46.558 2.67077 46.4235 2.93971C46.4235 2.95892 46.4043 2.97813 46.3851 2.99734C46.2122 3.28549 46.0585 3.57363 45.8856 3.84257C45.463 3.84257 45.1749 3.63126 44.9443 3.30469Z" fill="#36E3DA"/>
<path d="M44.9435 3.30371L45.8848 3.84159C45.6543 4.245 45.4814 4.68682 45.1932 5.05181C44.7898 5.09023 44.4248 4.87892 44.252 4.51393L44.9435 3.30371Z" fill="#32DCDC"/>
<path d="M37.4173 2.82362C37.667 2.38179 37.4173 1.88234 37.571 1.38288C37.8015 1.44051 37.936 1.72866 38.1665 1.67103C38.4739 1.6134 38.2433 1.28684 38.4354 1.03711V2.80442C38.397 2.86205 38.3778 2.91967 38.3778 2.99651C38.3394 3.39992 38.2433 3.45754 37.8784 3.30387C37.8015 3.26545 37.7631 3.18861 37.667 3.18861C37.6094 3.45755 37.7439 3.7649 37.5134 3.99542C37.2828 3.63043 37.4365 3.22703 37.4173 2.82362Z" fill="#2DD3DE"/>
<path d="M49.4411 9.2207C49.6332 9.62411 50.0174 9.75857 50.3824 9.93146C50.0558 10.1428 49.7101 10.3541 49.3643 10.5462C49.0569 10.6999 48.7496 10.7575 48.5383 10.3733C48.3654 10.0467 48.4806 9.75857 48.7688 9.54727C48.9993 9.43201 49.2298 9.33596 49.4411 9.2207Z" fill="#2ED0E0"/>
<path d="M50.3794 24.8189C50.2641 24.4347 49.7263 24.4347 49.6494 24.0121L50.5907 23.0132C50.8404 23.2821 51.2246 23.3974 51.4167 23.7239C51.1286 24.1466 50.7828 24.5115 50.3794 24.8189Z" fill="#0C9EEF"/>
<path d="M52.6894 16.3857C53.1313 17.5383 53.2273 18.8062 53.016 20.0356C52.7855 19.8243 52.8623 19.5362 52.8431 19.2864C52.8431 18.9407 52.8623 18.5757 52.8431 18.2299C52.7471 17.9033 52.4205 17.8457 52.19 17.7112C52.0555 17.8457 52.1516 18.057 51.9787 18.153L51.6905 16.8276C51.5753 16.5394 51.6713 16.4434 51.9403 16.5586C52.2092 16.6739 52.4781 16.6355 52.6894 16.3857Z" fill="#21BCE6"/>
<path d="M52.6892 16.3861C52.6123 16.7895 52.401 16.8856 52.036 16.6743C51.9784 16.6359 51.6518 16.3669 51.6903 16.7895C51.4597 16.2901 51.21 15.7906 50.9795 15.2912C51.3061 15.1759 51.5174 15.4064 51.7863 15.5217C51.9784 15.5985 52.1705 15.7522 52.3818 15.5793C52.5355 15.8291 52.6315 16.098 52.6892 16.3861Z" fill="#22BFE5"/>
<path d="M52.9934 18C52.9934 18.6723 53.0126 19.3639 53.0126 20.0362C53.0318 20.2091 52.9934 20.382 52.9165 20.5357C52.9165 20.4973 52.9165 20.4397 52.8973 20.4397C52.2826 20.2476 52.0329 19.8057 52.0137 19.191V19.0758C52.0713 18.7492 52.0713 18.365 52.59 18.6147C52.7629 18.6916 52.7436 18.4995 52.7629 18.3842C52.8205 18.2689 52.7244 18.0384 52.9934 18Z" fill="#1CB4E8"/>
<path d="M30.1738 9.81673C30.8846 8.91387 31.7682 8.16468 32.7864 7.62681C33.0361 7.53076 33.0745 7.64602 32.9785 7.83812C32.8632 8.01101 32.7479 8.16469 32.5943 8.27995C32.1717 8.70256 31.7106 9.08676 31.2304 9.43254C31.0191 9.62464 30.7693 9.77831 30.5196 9.91278C30.3467 10.028 30.3467 10.0088 30.1738 9.81673Z" fill="#24B1EC"/>
<path d="M44.234 4.51416C44.5222 4.74468 44.8295 4.93677 45.1753 5.05203C45.0601 5.26334 44.964 5.49386 44.8295 5.70517C44.6567 5.9741 44.3877 6.08936 44.0996 5.91648C43.8114 5.74359 43.677 5.49386 43.8691 5.14808C43.9843 4.93677 44.1188 4.72547 44.234 4.51416Z" fill="#32D7DD"/>
<path d="M48.8593 11.9673C48.6096 12.1402 48.8209 12.2362 48.917 12.3323C49.3012 12.7933 49.6854 13.2352 50.0696 13.6962C50.4922 14.1956 50.6843 14.1764 50.9916 13.5425C51.0877 13.5809 51.1645 13.6578 51.1837 13.7538C50.9148 13.9843 50.5498 14.138 50.3769 14.4838L49.2819 13.4849C48.9746 12.8894 48.4943 12.4283 48.1101 11.9097C47.9757 11.7368 47.822 11.5831 48.2254 11.6407C48.3983 11.8328 48.7057 11.7176 48.8593 11.9673Z" fill="#31C8E4"/>
<path d="M51.4002 23.7432C51.1121 23.5319 50.6511 23.4935 50.5742 23.0324L51.1505 22.1104C51.4771 22.3024 51.746 22.5714 51.9957 22.8595C51.8229 23.1477 51.7076 23.4935 51.4002 23.7432Z" fill="#10A3EE"/>
<path d="M34.2797 6.93465C34.5678 6.78098 34.8752 6.68493 35.1825 6.6273C35.4515 6.56967 35.5091 6.68492 35.317 6.85781C34.8752 7.26122 34.4718 7.70305 34.1068 8.16408L32.8965 8.85564C32.6276 8.66354 32.8581 8.52907 32.9542 8.3946C33.2615 8.02961 33.5881 7.70305 33.9339 7.39569C34.0683 7.26122 34.2989 7.18438 34.2797 6.93465Z" fill="#35BDEA"/>
<path d="M52.0152 22.8402C51.6502 22.7057 51.3428 22.4368 51.1699 22.091C51.3044 21.8221 51.4389 21.5531 51.5733 21.2842C51.8038 21.5915 52.188 21.6107 52.5146 21.8028C52.3609 22.1678 52.3033 22.5712 52.0152 22.8402Z" fill="#14A7ED"/>
<path d="M22.951 19.4599C22.951 19.0565 23.0279 18.6531 23.1623 18.2881C23.5657 18.6147 23.8731 19.0565 24.0076 19.5559C24.1036 19.8825 23.9884 20.113 23.5849 20.0362H23.4313C22.8742 20.0554 22.8742 20.0554 22.951 19.4599Z" fill="#0677FD"/>
<path d="M31.2312 10.2578L30.5012 11.1607C29.9441 11.372 29.6175 11.9099 29.0989 12.1788C29.0028 12.2365 28.926 12.3517 28.8107 12.3517C28.6186 12.3709 28.6186 12.2749 28.6955 12.1404C28.7147 11.9867 28.7915 11.8331 28.8876 11.737C29.4062 11.2376 29.9633 10.7573 30.5396 10.3347C30.6933 10.2386 30.8085 10.085 31.0006 10.085C31.1159 10.1042 31.1927 10.1618 31.2312 10.2578Z" fill="#39AFF1"/>
<path d="M52.9937 18.0001C52.8784 18.0961 52.8977 18.2498 52.8977 18.3651C52.8977 18.7685 52.9169 19.0566 52.379 18.6916C51.9948 18.4419 52.2061 18.999 52.014 19.0758L51.9756 18.1153C52.014 17.4238 52.0332 17.4046 52.6479 17.7888C52.7632 17.8656 52.9361 17.8656 52.9937 18.0001Z" fill="#1EB7E7"/>
<path d="M35.5114 7.64536C35.4345 7.72219 35.3193 7.7414 35.204 7.72219C34.9543 7.64535 34.9543 7.51089 35.0888 7.338C35.1656 7.24195 35.2424 7.16511 35.3193 7.08827C35.473 6.91538 35.6458 6.76171 35.8379 6.64645C35.9148 6.66566 35.8379 6.5504 35.8379 6.60803C35.8379 6.62724 35.8187 6.62724 35.7995 6.62724C35.7227 6.62724 35.6266 6.58882 35.5882 6.53119C35.9724 6.37751 36.3758 6.31988 36.7792 6.31988C36.8945 6.28146 37.0097 6.22383 37.1058 6.33909C37.1634 6.39672 37.1058 6.47356 37.0482 6.51198C36.5679 6.91538 36.1453 7.43405 35.5114 7.64536Z" fill="#46C8E9"/>
<path d="M31.2284 10.2577L30.9978 10.1617C30.921 10.0272 30.9786 9.89273 31.017 9.73906C31.0747 9.6238 31.1515 9.54696 31.2476 9.47012C31.6894 9.16276 32.0928 8.81699 32.5154 8.47121C32.6691 8.41358 32.842 8.31753 32.9957 8.452C32.938 8.58647 32.7651 8.68252 32.8996 8.85541C32.3233 9.27802 31.747 9.75827 31.2284 10.2577Z" fill="#33B4ED"/>
<path d="M35.5863 6.53111H36.0281C35.7399 6.83847 35.4902 7.1074 35.2213 7.35713C35.0868 7.4916 34.9908 7.58765 35.1829 7.74132L34.0879 8.16394C34.28 7.54923 34.7794 7.18424 35.2213 6.78083C35.3942 6.62715 35.2405 6.66558 35.1636 6.62716C35.2981 6.53111 35.4518 6.5119 35.5863 6.53111Z" fill="#3CC2E9"/>
<path d="M43.5624 7.95312C43.8505 8.02996 44.1003 8.20285 44.2732 8.45258C44.1387 8.83678 43.7737 9.08651 43.3703 9.04809L42.5635 8.54863C42.89 8.35653 43.1782 8.08759 43.5624 7.95312Z" fill="#E1F7FA"/>
<path d="M51.7863 9.12385L50.9795 8.33625C51.114 8.25941 51.2292 8.18257 51.3637 8.10573C51.6903 7.87521 51.9976 7.87521 52.2281 8.2402C52.4394 8.60519 52.2858 8.85492 51.9784 9.04701C51.9208 9.06622 51.8631 9.10464 51.7863 9.12385Z" fill="#34DBDC"/>
<path d="M37.5273 4.01474V2.9582C37.9115 3.22714 38.2957 3.5537 38.4302 2.82373C38.4302 3.20793 38.4302 3.57292 38.4494 3.95711C38.1421 4.36052 37.8923 4.37973 37.5273 4.01474Z" fill="#2BCFE0"/>
<path d="M28.6735 12.1591C28.6927 12.2744 28.7311 12.3704 28.8464 12.2552C29.2113 11.8902 29.7108 11.6981 30.0182 11.2755C30.1334 11.1026 30.2871 11.0257 30.4792 11.1794L29.9797 11.9862C29.5955 12.1207 29.3458 12.4088 29.0769 12.6778C28.9232 12.8315 28.7503 12.9659 28.5774 13.0812C28.4814 13.1388 28.3469 13.1964 28.3661 12.9659C28.4045 12.6394 28.5198 12.3896 28.6735 12.1591Z" fill="#40AFF2"/>
<path d="M29.0767 18.7871C29.3264 19.4595 29.2304 19.7092 28.5964 20.0165C28.4812 20.0742 28.4043 20.055 28.3659 19.9589C28.2507 19.8052 28.1738 19.5939 28.1738 19.4018C28.4043 18.8639 28.6349 18.7103 29.0767 18.7871Z" fill="#E5F1FE"/>
<path d="M48.2118 11.6418C48.1541 11.6802 47.9812 11.6226 48.1349 11.7955C48.4807 12.1797 48.8265 12.5831 49.1338 13.0057C49.2299 13.1401 49.422 13.2746 49.2683 13.4859L48.4615 12.9865C48.231 12.5254 47.8084 12.1797 47.5586 11.7378C47.4818 11.6034 47.2705 11.3536 47.6931 11.4497C47.8852 11.4689 48.0773 11.5265 48.2118 11.6418Z" fill="#3DCBE6"/>
<path d="M35.5098 7.64516L37.085 6.3581L36.7968 6.31968C37.1042 6.166 37.4115 6.24284 37.7189 6.24284C37.7573 6.31968 37.7381 6.41573 37.6613 6.47336C37.2579 6.78071 37.0081 7.26096 36.5087 7.43385L35.5098 7.64516Z" fill="#4FCCEA"/>
<path d="M36.5322 7.43466L37.7424 6.24365H38.4532C38.5685 6.41654 38.4724 6.5318 38.3572 6.62785C37.9922 6.916 37.6848 7.33861 37.1469 7.35782C36.9356 7.47308 36.7243 7.41545 36.5322 7.43466Z" fill="#59D0EA"/>
<path d="M27.9828 18.6914L27.8867 18.1919C27.9636 17.9422 28.1749 17.8269 28.3478 17.6925C28.5783 17.558 28.6935 17.3083 28.6551 17.0585C28.6551 16.9625 28.6551 16.8664 28.6551 16.7512C28.6551 16.6167 28.6551 16.4822 28.6551 16.3478C28.6935 16.1365 28.5783 15.8675 28.8856 15.7715V17.6925C28.9817 18.288 28.7512 18.653 28.2325 18.8066C28.1364 18.8258 28.0212 18.7874 27.9828 18.6914Z" fill="#D1E8FD"/>
<path d="M44.041 11.2377C44.7326 10.9304 45.4625 11.0072 46.1733 11.1417C46.1541 11.1801 46.0965 11.2185 46.058 11.2377C45.962 11.2761 45.8467 11.2761 45.7507 11.2761C45.5778 11.2761 45.4049 11.2761 45.232 11.2761C45.1168 11.2569 45.0015 11.2761 44.9439 11.1801C45.0976 11.5643 45.501 11.7756 45.6739 12.1598H45.0783C44.5789 12.0637 44.1947 11.718 44.041 11.2377Z" fill="#79D8EE"/>
<path d="M28.3672 12.9283C28.7321 12.9859 28.8474 12.6402 29.0779 12.4673C29.2892 12.2944 29.4813 12.1215 29.6734 11.9294C29.7887 11.8142 29.8847 11.9102 30 11.9486L29.5966 12.7554C29.174 12.9859 28.7898 13.2549 28.4248 13.5622C28.2711 13.6775 28.1174 13.812 28.1943 13.447C28.1751 13.2741 28.2327 13.082 28.3672 12.9283Z" fill="#47AFF4"/>
<path d="M31.3102 9.54692L31.1181 9.73902C30.7531 10.3153 30.1576 10.6227 29.6197 11.0069C29.4852 11.1029 29.2931 11.1221 29.4084 10.834C29.6197 10.4498 29.8886 10.104 30.196 9.79665C30.3689 10.0464 30.4841 9.77744 30.5994 9.71981C30.8107 9.60455 31.022 9.45088 31.2141 9.31641C31.2717 9.39325 31.3102 9.47008 31.3102 9.54692Z" fill="#2AADEF"/>
<path d="M43.5599 7.9537C43.2717 8.22264 43.0028 8.54921 42.561 8.54921L42.0615 8.24185C42.292 7.93449 42.6186 7.68476 42.9644 7.55029C43.2141 7.5695 43.3678 7.78081 43.5599 7.9537Z" fill="#D8F4F9"/>
<path d="M29.3823 10.8528C29.4015 10.9872 29.4399 11.0257 29.5552 10.9296C30.0546 10.5262 30.5733 10.142 31.0919 9.75781C31.0919 9.89228 31.0727 10.046 30.9959 10.1612C30.3235 10.6415 29.6704 11.1601 29.0749 11.7172C29.0173 11.7748 28.9597 11.8517 28.8828 11.7364C28.9404 11.3907 29.1902 11.1409 29.3823 10.8528Z" fill="#30ADF0"/>
<path d="M23.6586 19.997C24.1389 19.9394 23.9852 19.6512 23.8507 19.4015C23.6202 19.0365 23.3321 18.6907 23.1592 18.2873C23.1592 18.1721 23.1784 18.076 23.2552 17.98C23.6394 18.0952 24.0236 18.6523 24.062 19.0941L24.0428 20.8807C23.8699 20.727 23.9468 20.5541 23.9468 20.362C23.9468 20.1507 23.8507 20.0546 23.6394 20.0739C23.601 20.0546 23.601 20.0354 23.601 20.0162C23.6394 20.0162 23.6394 19.997 23.6586 19.997Z" fill="#1E86FD"/>
<path d="M28.7694 16.3861V16.7895C28.4621 17.0585 28.27 17.4619 27.7705 17.4042C27.6169 16.7511 27.6169 16.0596 27.7705 15.3872L27.8282 15.4256C27.8666 15.5217 27.905 15.6177 27.8858 15.7138C27.8858 15.8098 27.8858 15.9059 27.8858 16.0019C27.8858 16.098 27.8858 16.2324 27.8858 16.3669C27.8858 16.463 27.8858 16.5782 27.905 16.6743C28.2124 16.5974 28.4045 16.1556 28.7694 16.3861Z" fill="#AED6FC"/>
<path d="M27.9805 18.6908C28.5183 18.6716 28.8833 18.2682 28.8833 17.6919C29.0562 18.0377 28.9602 18.4411 29.0754 18.8061C28.6336 18.7869 28.4607 19.1711 28.1726 19.4208C28.0573 19.1903 27.9805 18.9405 27.9805 18.6908Z" fill="#D9EBFE"/>
<path d="M28.1716 13.4665C28.1908 13.5241 28.1716 13.6778 28.2869 13.5241C28.5558 13.1976 28.9784 13.0823 29.2474 12.7365C29.3434 12.6213 29.4587 12.6981 29.5547 12.7557C29.5355 12.9094 29.4779 13.0439 29.3819 13.1591C29.0937 13.5818 28.5942 13.7547 28.2293 14.1004C28.1908 14.1388 28.114 14.1965 28.0564 14.1389C27.9411 14.0428 27.9987 13.9275 28.0372 13.8123C28.0564 13.697 28.0948 13.5626 28.1716 13.4665Z" fill="#52B2F5"/>
<path d="M38.7206 7.3384L37.7217 7.3192C37.7217 7.1271 37.8754 7.14631 37.9906 7.10789C38.0867 7.10789 38.1827 7.10789 38.298 7.10789C38.8743 7.20394 39.1624 6.72369 39.6042 6.45475C39.6427 6.45475 39.585 6.41633 39.5658 6.43554C39.4314 6.51238 39.3161 6.53159 39.3161 6.32028C39.7195 6.24344 40.0269 6.58922 40.4111 6.53159C39.9308 6.97342 39.5082 7.54971 38.7206 7.3384Z" fill="#7FDCED"/>
<path d="M28.7684 16.3869C28.365 16.3869 28.1345 16.7326 27.7695 16.9824V16.3869C27.904 16.1179 28.1537 15.9835 28.365 15.8106C28.5379 15.6953 28.6532 15.5416 28.6916 15.3303C28.73 15.2343 28.7684 15.1382 28.8837 15.1766C28.8837 15.3687 28.8837 15.5801 28.8645 15.7721C28.7108 15.9642 28.8069 16.1756 28.7684 16.3869Z" fill="#98CCFB"/>
<path d="M45.7715 11.1611H46.0789C46.4439 11.2764 46.7512 11.5261 46.9433 11.8527C47.0586 12.0256 47.1546 12.1985 46.9625 12.3906L46.4631 12.2753C46.3478 12.16 46.1749 12.2561 46.0597 12.1793C46.1365 12.064 46.1173 11.9103 46.0405 11.7951C45.9252 11.603 45.6755 11.4493 45.7715 11.1611Z" fill="#63D3EB"/>
<path d="M47.6895 11.4488C47.4974 11.4681 47.5166 11.5449 47.6319 11.6601C47.8816 11.9675 48.1121 12.2941 48.3811 12.6014C48.4771 12.7167 48.5924 12.8319 48.4771 12.9856L47.8816 12.6783C47.7472 12.2557 47.3822 11.9867 47.094 11.6794C47.0172 11.5833 46.9211 11.4873 46.998 11.372C47.0748 11.2567 47.2093 11.2952 47.3053 11.3528C47.4398 11.3336 47.5743 11.372 47.6895 11.4488Z" fill="#4ACEE7"/>
<path d="M43.6582 12.3711L42.9474 12.5632C42.5825 12.4095 42.2943 12.1214 42.1406 11.7564C42.3519 11.6027 42.5825 11.4875 42.8514 11.4683C43.0243 11.8332 43.3124 12.1598 43.6582 12.3711Z" fill="#9EE0F3"/>
<path d="M32.9949 8.4528L32.4955 8.54885C32.4763 8.47201 32.4955 8.41438 32.5531 8.35675C32.9757 7.95335 33.3983 7.54994 33.8018 7.12732L34.282 6.91602C34.4357 6.95444 34.5701 6.97364 34.3588 7.14653C33.8978 7.58836 33.456 8.01098 32.9949 8.4528Z" fill="#2DBAE9"/>
<path d="M40.929 13.7736C40.8137 13.9273 40.6024 13.9849 40.5256 14.177C40.1029 14.1194 39.7764 13.7928 39.7188 13.3702C39.834 13.1781 39.9685 13.0052 40.2182 12.9668C40.4103 13.2742 40.6408 13.5623 40.929 13.7736Z" fill="#D8F0FB"/>
<path d="M39.739 13.3696C39.9695 13.677 40.1808 13.9843 40.5458 14.1764C40.469 14.3685 40.2577 14.4262 40.1424 14.5798C39.7198 14.4838 39.5277 14.1764 39.4316 13.773C39.4509 13.5809 39.5661 13.4273 39.739 13.3696Z" fill="#E2F4FC"/>
<path d="M38.0288 7.24201C37.9136 7.24201 37.7983 7.2228 37.7215 7.33806L37.126 7.35727C37.6639 7.12675 38.1057 6.74256 38.4322 6.2431C38.7012 6.20468 38.9701 6.2431 39.2391 6.31994C39.2583 6.33915 39.2775 6.37757 39.2775 6.39678C39.2775 6.4352 39.2583 6.4352 39.2583 6.4352C38.7396 6.56967 38.4515 6.99228 38.0288 7.24201Z" fill="#65D4EB"/>
<path d="M44.0418 11.2383C44.4068 11.5264 44.6181 11.9683 45.0407 12.1604H44.7526C44.3492 12.2756 44.0034 12.2372 43.8113 11.7954C43.7344 11.6033 43.4463 11.6033 43.4463 11.3727C43.6384 11.2191 43.8497 11.2767 44.0418 11.2383Z" fill="#84DAF0"/>
<path d="M33.7984 7.12598C33.856 7.14519 34.0097 7.1836 33.9136 7.24123C33.4142 7.5678 33.0876 8.08647 32.6074 8.43224C32.5305 8.39382 32.4537 8.33619 32.5113 8.24014C32.6458 8.08647 32.7803 7.952 32.8955 7.79832C33.0108 7.64464 32.8955 7.64464 32.7995 7.62543C33.0876 7.41412 33.4334 7.24124 33.7984 7.12598Z" fill="#28B8E9"/>
<path d="M43.6564 12.371C43.1954 12.3134 42.8496 11.9292 42.8496 11.4681L43.157 11.3721C43.5604 11.5642 43.7333 12.006 44.0598 12.2749C43.9638 12.3902 43.8101 12.3518 43.6564 12.371Z" fill="#93DDF2"/>
<path d="M38.7227 7.3374C39.0684 7.37582 39.4142 7.26057 39.6447 7.01084C39.856 6.79953 40.1634 6.70348 40.4323 6.5498C40.586 6.5498 40.7205 6.5498 40.7589 6.7419C40.3747 7.01084 40.0866 7.49108 39.5295 7.45266C39.2605 7.41424 38.9724 7.51029 38.7227 7.3374Z" fill="#8CE0EF"/>
<path d="M46.9637 12.39C46.9829 11.7561 46.4259 11.5256 46.0801 11.1606L46.1953 11.1414C46.3298 11.1222 46.4835 11.1798 46.5795 11.2758C47.1174 11.5064 47.4824 12.0058 47.5784 12.5821C47.3671 12.5437 47.1558 12.4861 46.9637 12.39Z" fill="#5AD1EA"/>
<path d="M46.0797 12.1601C46.2142 12.1794 46.3871 12.1217 46.4831 12.2754C46.2142 12.2946 45.9452 12.2562 45.6763 12.1794C45.2729 11.968 45.0616 11.6031 44.8311 11.2381C44.9463 11.142 45.0616 11.1804 45.1576 11.1804C45.5226 11.4494 45.9452 11.6607 46.0797 12.1601Z" fill="#71D6ED"/>
<path d="M41.8544 13.0827C41.7968 13.198 41.6815 13.2748 41.547 13.2748C41.0476 13.3132 40.9323 12.8906 40.7402 12.564C40.8171 12.3911 40.99 12.3335 41.1436 12.2759C41.4894 12.4488 41.7776 12.6793 41.8544 13.0827Z" fill="#BEE8F8"/>
<path d="M28.0545 13.831L28.0929 14.0808C28.4963 13.7158 28.9381 13.4084 29.3992 13.1587C29.3607 13.37 29.3031 13.5813 29.1879 13.7542C28.8229 13.9271 28.5539 14.196 28.2274 14.4457C28.1505 14.5034 28.0545 14.6186 27.9776 14.5418C27.9008 14.4842 27.92 14.3305 27.9584 14.2344C27.9392 14.1 27.9776 13.9655 28.0545 13.831Z" fill="#5AB4F6"/>
<path d="M24.0636 19.1136C23.7947 18.7294 23.6218 18.2876 23.2568 17.9995C23.276 17.8074 23.3337 17.6345 23.4489 17.5C23.8331 17.8266 24.1405 18.1916 24.1597 18.7294C24.1789 18.8639 24.1597 18.9984 24.0636 19.1136Z" fill="#2E8EFC"/>
<path d="M29.1725 13.8693C29.1533 14.119 29.0957 14.3495 28.9804 14.5608C28.577 14.8105 28.2889 15.2524 27.7894 15.3484L27.751 15.3676C27.7894 15.1563 27.7126 14.945 27.8662 14.7529C28.2696 14.5608 28.5578 14.1958 28.9228 13.9653C29.0188 13.9269 29.0572 13.8308 29.1725 13.8693Z" fill="#71BCF8"/>
<path d="M29.1704 13.8695C28.863 14.3306 28.2675 14.465 27.941 14.9453C27.8833 15.0221 27.9025 14.8108 27.8641 14.7532C27.8449 14.5803 27.8641 14.4074 27.9602 14.2537C28.037 14.2729 27.8449 14.6187 28.1138 14.3882C28.3444 14.1961 28.5941 14.0232 28.8246 13.8311C28.9399 13.7351 29.0359 13.6774 29.1896 13.7735C29.1896 13.8119 29.1896 13.8503 29.1704 13.8695Z" fill="#67B9F8"/>
<path d="M42.9443 7.5492C42.6946 7.83735 42.3872 8.08708 42.0414 8.25997C41.8493 8.24076 41.6765 8.16392 41.542 8.04866C41.8686 7.81814 42.1759 7.52999 42.5409 7.33789C42.6946 7.3571 42.8483 7.43394 42.9443 7.5492Z" fill="#CCF1F7"/>
<path d="M40.7341 12.5635C41.0607 12.7364 41.1759 13.159 41.5409 13.2742C41.4641 13.4471 41.272 13.4855 41.1375 13.5816C40.7725 13.4279 40.4652 13.2166 40.4268 12.7748C40.4844 12.6403 40.5996 12.5635 40.7341 12.5635Z" fill="#C5EBF9"/>
<path d="M44.0601 12.2749C43.5606 12.1789 43.4454 11.6794 43.1572 11.3721H43.4646C43.6375 11.4873 43.9064 11.4873 43.964 11.7371C44.0793 12.1981 44.4251 12.1981 44.7709 12.1789C44.5595 12.3134 44.3098 12.2365 44.0601 12.2749Z" fill="#8BDBF0"/>
<path d="M47.577 12.5638C47.3081 12.0836 47.02 11.6034 46.5781 11.2576C46.8279 11.2384 47.0776 11.1807 47.2889 11.3344C47.0968 11.3344 46.9239 11.3344 47.1544 11.5841C47.3849 11.7954 47.5962 12.026 47.7883 12.2757C47.8652 12.4102 47.9804 12.5062 47.8652 12.6791L47.577 12.5638Z" fill="#52CFE8"/>
<path d="M28.7899 17.0776C28.886 17.4426 28.6555 17.6155 28.4057 17.8076C28.2329 17.9421 28.06 18.0573 27.8871 18.1918C27.8102 18.0765 27.7718 17.9229 27.791 17.7884C28.0215 17.4042 28.2905 17.0968 28.7899 17.0776Z" fill="#C3E0FC"/>
<path d="M24.7344 15.5598C24.7728 15.3869 24.9265 15.3485 25.0417 15.2524C25.4067 15.4445 25.618 15.8479 25.5412 16.2514C25.5028 16.3474 25.4259 16.4242 25.3299 16.4435C24.9457 16.309 24.8496 15.944 24.7344 15.5598Z" fill="#9CCDFC"/>
<path d="M24.5858 17.615C24.5666 17.7879 24.4897 17.9607 24.3745 18.1144C24.1055 17.7302 23.779 17.3845 23.7598 16.885C23.779 16.7505 23.8366 16.6545 23.9327 16.5776C24.3553 16.7889 24.4897 17.1923 24.5858 17.615Z" fill="#59A7FC"/>
<path d="M40.4499 12.7744C40.6228 13.101 40.9494 13.2739 41.1607 13.5812L40.9494 13.7733C40.4691 13.7157 40.3154 13.3891 40.2578 12.9665L40.4499 12.7744Z" fill="#CEEDFA"/>
<path d="M42.142 11.7563C42.4493 11.9869 42.7183 12.2558 42.9488 12.5632C42.7951 12.6784 42.6222 12.7361 42.4493 12.7553C42.1228 12.5632 41.9307 12.2174 41.9307 11.8332C41.9883 11.7756 42.0651 11.7563 42.142 11.7563Z" fill="#A4E1F4"/>
<path d="M39.2429 6.43508V6.31982C39.2813 6.31982 39.3197 6.31982 39.3389 6.31982C39.3965 6.4735 39.5886 6.35824 39.6847 6.51192C39.2621 6.80007 38.9547 7.31874 38.3208 7.22269C38.2055 7.0498 38.34 6.99217 38.4361 6.91533C38.6858 6.74244 38.9547 6.56955 39.2429 6.43508Z" fill="#73D9EC"/>
<path d="M41.0484 6.74221C41.2213 6.70379 41.3942 6.78063 41.4518 6.93431C41.2021 7.16483 40.8947 7.31851 40.6834 7.60665C40.645 7.68349 40.5297 7.7027 40.4529 7.66428L40.4337 7.64507C40.2992 7.62586 40.1455 7.68349 40.0303 7.54902C40.1647 7.03036 40.645 6.9151 41.0484 6.74221Z" fill="#9DE5F1"/>
<path d="M25.558 16.2714C25.5004 15.8872 25.2315 15.5991 25.0586 15.2725C25.1354 15.1381 25.2315 15.042 25.366 14.9844C25.7117 15.1957 25.9038 15.5799 25.8654 15.9833C25.8078 16.1178 25.6925 16.2138 25.558 16.2714Z" fill="#AED5FC"/>
<path d="M41.9467 11.8525L42.4654 12.7746C42.4269 12.8515 42.3501 12.8899 42.2733 12.8707C41.8891 12.8322 41.6778 12.6017 41.5625 12.0638C41.6393 11.9486 41.793 11.8717 41.9467 11.8525Z" fill="#ADE4F6"/>
<path d="M41.5489 12.0444C41.8371 12.275 41.8371 12.7552 42.2597 12.8512L41.8563 13.0626L41.1455 12.2557C41.28 12.1981 41.376 12.0636 41.5489 12.0444Z" fill="#B4E5F6"/>
<path d="M27.7887 15.3677C28.1921 15.118 28.4419 14.6377 28.9798 14.5801C28.999 14.753 28.9605 14.9259 28.8837 15.0795C28.634 15.1564 28.4611 15.3293 28.2498 15.4637C28.0961 15.5598 28 15.7327 27.7695 15.675L27.7887 15.3677Z" fill="#79BFF8"/>
<path d="M23.7553 16.8857C23.9281 17.3084 24.3123 17.6349 24.37 18.1152C24.3315 18.192 24.3123 18.2689 24.2739 18.3457C23.9474 18.0575 23.6592 17.7502 23.5439 17.3084C23.5632 17.1355 23.64 16.9818 23.7553 16.8857Z" fill="#499EFB"/>
<path d="M25.4639 14.8685L25.7712 14.6572C26.1938 14.6764 26.4244 15.0606 26.3859 15.5601L26.0786 15.7714C25.8289 15.5025 25.6368 15.1951 25.4639 14.8685Z" fill="#C9E4FC"/>
<path d="M41.9468 7.0498L42.3502 7.2419C42.1005 7.60689 41.7931 7.89504 41.3513 7.95267C41.236 7.95267 41.1208 7.97188 41.0439 7.85662C41.1784 7.37637 41.6394 7.29953 41.9468 7.0498Z" fill="#B8ECF5"/>
<path d="M23.5462 17.27C23.7768 17.635 24.1417 17.8847 24.2762 18.3073C24.2954 18.4418 24.257 18.5763 24.161 18.6915L23.4502 17.4621C23.4502 17.4045 23.4886 17.3276 23.5462 17.27Z" fill="#3D97FB"/>
<path d="M26.3696 15.5788C26.2159 15.2523 26.1775 14.8297 25.7549 14.676L26.0622 14.4839C26.4849 14.6184 26.677 14.9257 26.6577 15.3868L26.3696 15.5788Z" fill="#D7EBFD"/>
<path d="M40.4268 7.64484C40.6765 7.52958 40.7533 7.24144 41.0031 7.10697C41.1375 7.01092 41.2912 6.95329 41.4449 6.93408L41.637 6.95329C41.5601 7.41432 41.0607 7.51037 40.8302 7.83694L40.4268 7.64484Z" fill="#A7E7F2"/>
<path d="M41.3311 7.95295L42.33 7.24219C42.4068 7.24219 42.4836 7.28061 42.5221 7.33824C42.2531 7.6648 41.965 7.99137 41.5232 8.049C41.4655 8.049 41.3887 8.01058 41.3311 7.95295Z" fill="#C1EEF6"/>
<path d="M41.0472 6.74333C40.7398 7.05069 40.3172 7.20436 40.0483 7.55014C39.8754 7.53093 39.6833 7.58856 39.5488 7.45409C39.8562 7.37725 40.0867 7.16594 40.3172 6.95464C40.4517 6.83938 40.6246 6.76254 40.7975 6.72412L41.0472 6.74333Z" fill="#93E2F0"/>
<path d="M24.8703 17.0967C24.8511 17.1736 24.8511 17.2504 24.755 17.2696C24.3132 17.1544 24.1787 16.7702 24.0635 16.386C24.1211 16.2707 24.1403 16.1555 24.2556 16.0786C24.6206 16.2899 24.8511 16.6741 24.8703 17.0967Z" fill="#70B4FC"/>
<path d="M40.833 7.83775C40.9098 7.37672 41.4285 7.31909 41.6398 6.9541L41.9472 7.05015C41.7743 7.45356 41.294 7.5304 41.0443 7.85697L40.833 7.83775Z" fill="#AFEAF3"/>
<path d="M27.791 15.6753L28.4442 15.1759C28.5786 15.0798 28.7131 14.9838 28.886 15.0798C28.886 15.1182 28.886 15.1375 28.886 15.1759C28.8091 15.2143 28.7707 15.2911 28.7899 15.368C28.4634 15.5793 28.2521 16.0019 27.791 15.9635V15.6753Z" fill="#82C3F9"/>
<path d="M25.4698 14.8682C25.7963 15.0603 26.0076 15.406 26.0653 15.771L25.8539 15.9631L25.3545 14.9642L25.4698 14.8682Z" fill="#BBDDFC"/>
<path d="M26.6727 15.386C26.519 15.0594 26.4037 14.6944 26.0771 14.4831C26.2116 14.3871 26.3845 14.1566 26.4998 14.4447C26.5958 14.7136 27.1529 14.9634 26.6727 15.386Z" fill="#E5F2FE"/>
<path d="M28.7877 17.0771C28.4035 17.2499 28.1153 17.5189 27.7887 17.7686C27.7887 17.6341 27.7887 17.4997 27.7695 17.3652C28.1729 17.2692 28.3842 16.8465 28.7684 16.7505C28.7877 16.885 28.7877 16.981 28.7877 17.0771Z" fill="#B6DAFC"/>
<path d="M43.3525 9.04765C43.6983 8.9324 44.0057 8.72109 44.2554 8.45215C44.313 8.50978 44.4283 8.56741 44.4091 8.62504C44.3707 8.9516 43.6599 9.23975 43.3525 9.04765Z" fill="#EEFAFC"/>
<path d="M24.0632 16.3857C24.2937 16.6739 24.4474 17.0197 24.7547 17.2694L24.5818 17.6152L23.9287 16.5778C23.9671 16.501 24.0248 16.4434 24.0632 16.3857Z" fill="#63ACFC"/>
<path d="M24.8676 17.0971L24.2529 16.079C24.3106 16.0021 24.3874 15.9445 24.445 15.8677C24.7716 16.1558 25.079 16.4632 24.9445 16.9818L24.8676 17.0971Z" fill="#7ABAFC"/>
<path d="M24.7387 15.5605L25.3534 16.4634L25.1613 16.6939C24.7963 16.5018 24.7002 16.0984 24.5273 15.7719L24.7387 15.5605Z" fill="#8DC5FB"/>
<path d="M39.43 13.7739C39.6797 14.0237 39.8334 14.3694 40.1408 14.5807C39.7758 14.8113 39.6605 14.4463 39.5069 14.2734C39.43 14.1581 39.065 13.9852 39.43 13.7739Z" fill="#F1F9FD"/>
<path d="M24.5456 15.7715C24.8337 16.0212 24.949 16.4054 25.1795 16.6936L24.9682 16.9817C24.9874 16.5207 24.5456 16.2901 24.4688 15.8675L24.5456 15.7715Z" fill="#86C0FB"/>
<path d="M23.6598 19.9974V20.0934C23.3524 20.1318 22.9106 19.9205 22.949 20.516C22.8529 20.1702 22.8529 19.8052 22.949 19.4595C22.8529 20.0742 23.2756 20.0358 23.6598 19.9974Z" fill="#1E82FE"/>
<path d="M37.0133 26.6249H33.7093C33.1906 26.5481 32.6527 26.6057 32.134 26.5865C31.9612 26.5673 31.7691 26.6249 31.5962 26.5481H31.5001C31.3849 26.4328 31.1928 26.3944 31.0967 26.2792C30.8278 25.9526 30.4436 25.8758 30.0402 25.8758C29.8289 25.8758 29.5407 25.991 29.4062 25.6645C31.0775 25.6068 32.7295 25.6837 34.3816 25.7413C34.5353 25.7413 34.6697 25.7989 34.7658 25.9142C35.1692 26.356 35.6494 26.6442 36.3026 26.5481C36.5139 26.5097 36.7828 26.4521 37.0133 26.6249Z" fill="#006AFE"/>
<path d="M29.4061 25.6455C29.6174 25.8184 29.8671 25.7416 30.0784 25.7223C30.7892 25.6263 31.1542 26.0489 31.5191 26.5292C31.1734 26.51 30.8276 26.5099 30.4626 26.5484C29.7326 26.6828 29.2524 26.241 28.7529 25.8376C28.8682 25.6455 29.0987 25.8184 29.1948 25.6455H29.4061Z" fill="#0167FE"/>
<path d="M31.5928 26.5287C32.2843 26.5863 32.9951 26.4326 33.6866 26.6247H31.5928V26.5287Z" fill="#0167FE"/>
<path d="M37.3203 25.7224C38.1079 25.5687 38.665 25.9721 39.126 26.5292C38.3576 26.6445 37.7813 26.2987 37.3203 25.7224Z" fill="#067CFA"/>
<path d="M32.4948 8.24023L32.5908 8.43233L32.4948 8.52838C32.1874 8.98942 31.7072 9.21994 31.2845 9.5273C31.2077 9.48888 31.1693 9.41204 31.1885 9.3352L32.4948 8.24023Z" fill="#2AB3EB"/>
<path d="M46.0786 12.16C45.7905 11.8143 45.4063 11.5453 45.1758 11.1611H45.7713L46.0594 11.603C46.1747 11.7951 46.29 11.9679 46.0786 12.16Z" fill="#69D4EC"/>
<path d="M27.7695 15.9827C28.1537 15.8674 28.3458 15.4064 28.7684 15.3872C28.8069 15.829 28.365 15.8675 28.1729 16.1172C28.0577 16.2324 27.9232 16.3285 27.7695 16.3861V15.9827Z" fill="#90C8FA"/>
<path d="M39.2395 6.4354C39.105 6.70433 38.8169 6.80038 38.5864 6.95406C38.4711 7.0309 38.3367 7.06932 38.3367 7.24221H38.0293C38.3559 6.85801 38.6056 6.37777 39.2395 6.4354Z" fill="#69D5EB"/>
<path d="M73.6201 34.8156C74.2055 34.6645 74.8099 34.7967 75.4142 34.7401C75.603 34.7212 75.8108 34.7212 75.9996 34.7212V46.8641C75.3575 46.8641 74.7154 46.8453 74.0922 46.8453C73.9412 46.8453 73.7712 46.9208 73.6201 46.7697C73.9412 46.5053 74.3189 46.6186 74.6588 46.5998C75.8296 46.5809 75.7352 46.6942 75.7352 45.4856C75.7352 42.294 75.7352 39.1025 75.7352 35.9109C75.7352 35.741 75.7352 35.5899 75.7352 35.4199C75.7541 35.08 75.5653 34.9478 75.2631 34.9478C74.9421 34.9478 74.5644 34.9478 74.2244 34.9478C73.9978 34.9667 73.7712 35.0045 73.6201 34.8156Z" fill="#373737"/>
<path d="M75.9114 35.212C75.9114 34.9287 75.8359 34.8343 75.5526 34.8343C74.9105 34.8532 74.2684 34.8343 73.6263 34.8154C73.4942 34.9476 73.5697 35.1365 73.5697 35.2876C73.5697 36.6095 73.5697 37.9314 73.5508 39.2534C73.5508 39.3856 73.6264 39.5366 73.4564 39.65C73.2487 39.0456 72.7954 38.5357 72.1911 38.3091C70.7936 37.7426 69.1884 38.3091 68.4708 39.6311C68.1875 40.1787 68.0176 40.7642 67.942 41.3685C67.7909 42.7848 67.7909 44.2012 68.4897 45.5043C69.3206 47.0906 71.549 47.5438 72.8332 46.3918C73.1165 46.1086 73.3431 45.7686 73.4942 45.3909C73.6075 45.9008 73.4564 46.3541 73.6075 46.7695C74.2496 46.7695 74.8916 46.7507 75.5337 46.7507C75.817 46.7507 75.9114 46.6562 75.8925 46.3918C75.8925 42.6715 75.8925 38.9323 75.9114 35.212ZM73.5508 43.5402C73.5508 44.5789 72.9465 45.1266 71.8889 45.051C71.1524 45.0321 70.5292 44.4845 70.4348 43.748C70.3026 42.9737 70.3026 42.1805 70.4159 41.3874C70.6048 40.1221 72.0211 39.5744 73.0598 40.3487C73.362 40.5375 73.5319 40.8775 73.5319 41.2174C73.5319 41.6517 73.5319 42.105 73.5319 42.5393C73.5508 42.8793 73.5508 43.2192 73.5508 43.5402Z" fill="white"/>
<path d="M36.0961 41.1788C36.1149 41.6887 36.0583 42.2364 36.1716 42.8029C36.3793 43.9171 37.0214 44.597 38.079 44.7858C39.1365 44.9747 40.0808 44.5403 40.5907 43.5583C40.7795 43.1995 40.8928 43.1617 41.2139 43.3695C41.6482 43.6528 42.0826 43.8983 42.5358 44.1249C42.7624 44.2382 42.7624 44.3515 42.6491 44.5781C41.7049 46.4099 39.7597 47.3164 37.5124 46.9576C35.6995 46.6554 34.472 45.6734 33.8865 43.936C33.2256 41.9153 33.2256 39.8758 34.1132 37.9306C34.9441 36.1366 36.6626 35.1923 38.6266 35.2679C40.364 35.3245 41.7049 35.9855 42.5547 37.5529C42.7058 37.8173 42.7435 37.9873 42.3847 38.1384C41.8748 38.365 41.4027 38.6483 40.8928 38.9127C40.7417 38.9882 40.6095 39.0826 40.5151 38.8371C40.0808 37.5529 38.8155 37.3263 37.7579 37.5907C36.7004 37.8551 36.0772 38.7805 36.0583 40.0269C36.0772 40.3668 36.0961 40.7445 36.0961 41.1788Z" fill="white"/>
<path d="M26.4836 37.2903C25.3505 39.5754 24.0852 41.7849 22.8199 44.0889C21.5735 41.7849 20.3083 39.5754 19.0619 37.3092V37.8758C19.0619 40.6896 19.0619 43.5035 19.0619 46.3173C19.0619 46.6761 19.0241 46.8461 18.5897 46.8272C17.7022 46.7894 17.7021 46.8272 17.7021 45.9207C17.7021 42.5781 17.7021 39.2355 17.7021 35.8929C17.7021 35.5341 17.7777 35.4207 18.1554 35.4207C19.4962 35.4396 19.4962 35.4207 20.1383 36.6105L22.7444 41.4828C22.7633 41.5017 22.7633 41.5017 22.7822 41.5205C22.9521 41.5205 22.9521 41.3506 23.0088 41.2562C23.9719 39.4621 24.935 37.668 25.8982 35.874C26.0681 35.5718 26.2381 35.383 26.6158 35.4396C27.0313 35.4963 27.5789 35.2697 27.8433 35.5341C28.1077 35.7984 27.9189 36.3461 27.9189 36.7616C27.9189 39.9342 27.9189 43.1069 27.9377 46.2984C27.9377 46.7139 27.8622 46.865 27.409 46.8461C26.578 46.8083 26.578 46.8461 26.578 46.0151V37.347L26.4836 37.2903Z" fill="white"/>
<path d="M13.361 40.9527C13.3232 40.8583 13.0966 40.9716 13.1721 40.7638C13.6065 40.6316 13.9842 40.3861 14.2675 40.0462C15.1739 38.9131 14.8529 36.798 13.6443 35.986C13.04 35.6083 12.3412 35.4194 11.6236 35.4383C10.245 35.4383 8.8664 35.4572 7.46892 35.4194C7.11011 35.4194 7.03457 35.5327 7.03457 35.8727C7.05346 38.0255 7.03457 40.1784 7.03457 42.3313C7.03457 43.691 7.03457 45.0696 7.03457 46.4293C7.03457 46.637 6.9968 46.8259 7.31785 46.8259C9.03637 46.807 10.7738 46.8448 12.4923 46.7692C13.852 46.7126 14.8907 45.5795 15.0984 44.1065C15.3439 42.5768 14.7585 41.5004 13.361 40.9527ZM8.43205 36.9491C8.43205 36.7414 8.50759 36.6658 8.71532 36.6658C9.77287 36.6847 10.8115 36.6469 11.8691 36.6847C12.7 36.7225 13.191 37.1946 13.3043 38.0255C13.3421 38.3466 13.3421 38.6865 13.3232 39.0076C13.2288 39.7818 12.7 40.2728 11.9069 40.3295C11.3592 40.3673 10.8304 40.3295 10.2828 40.3295V40.3484C9.77288 40.3484 9.26299 40.3484 8.7531 40.3484C8.52648 40.3484 8.43205 40.2917 8.43205 40.0462C8.43205 39.0264 8.43205 37.9878 8.43205 36.9491ZM13.7009 44.0498C13.6254 44.9563 13.1155 45.5417 12.209 45.5795C11.0382 45.6361 9.88618 45.5984 8.71532 45.6173C8.48871 45.6173 8.43205 45.5228 8.45094 45.3151C8.46982 44.7297 8.45094 44.1253 8.45094 43.5399C8.45094 42.9734 8.46982 42.4257 8.45094 41.8592C8.45094 41.6137 8.50759 41.5192 8.77198 41.5192C9.82953 41.5381 10.906 41.5004 11.9824 41.5381C13.04 41.557 13.6254 42.1236 13.7198 43.2C13.7198 43.4833 13.7198 43.7665 13.7009 44.0498Z" fill="white"/>
<path d="M56.5541 40.6502C56.0254 39.0638 54.7412 38.1385 53.0227 38.0818C51.1342 38.0252 49.7934 38.8561 49.1702 40.4802C48.7736 41.5755 48.698 42.7464 48.9435 43.8795C49.3779 46.0323 51.4741 47.4298 53.627 46.9955C54.1558 46.8821 54.6656 46.6744 55.1 46.3723C56.4597 45.4469 56.7807 44.0683 56.8374 42.5386C56.8563 41.8966 56.743 41.2734 56.5541 40.6502ZM54.288 43.9172C54.1558 44.6915 53.6081 45.1259 52.796 45.1259C52.0218 45.1259 51.493 44.6915 51.3797 43.8983C51.2664 42.9919 51.2664 42.0854 51.3797 41.1978C51.493 40.4047 52.0784 39.9703 52.8716 39.9892C53.6459 40.0081 54.1558 40.4424 54.288 41.2356C54.3824 41.7077 54.3257 42.1798 54.3446 42.8219C54.3635 43.1618 54.3446 43.5395 54.288 43.9172Z" fill="white"/>
<path d="M63.638 45.4479C63.2414 46.1277 62.7882 46.6943 61.995 46.902C60.3709 47.3364 59.049 46.5999 58.6335 44.9758C58.5202 44.5037 58.4824 44.0315 58.4824 43.5594C58.4824 41.9353 58.4824 40.2923 58.4824 38.6682C58.4824 38.3661 58.5202 38.2339 58.879 38.2528C59.4267 38.2905 59.9554 38.2905 60.5031 38.2528C60.8241 38.2339 60.9186 38.3472 60.8997 38.6682C60.8808 40.1601 60.8997 41.6332 60.8997 43.1062C60.8997 43.295 60.8997 43.5028 60.9186 43.6916C60.9563 44.5792 61.4096 45.0891 62.2027 45.0513C63.0148 44.9947 63.6946 44.5603 63.6758 43.6161C63.638 41.9731 63.6757 40.3112 63.6569 38.6871C63.6569 38.3283 63.7513 38.2339 64.0912 38.2528C64.6578 38.2905 65.2054 38.2717 65.772 38.2528C66.0175 38.2528 66.0741 38.3283 66.0741 38.5549C66.0741 41.1988 66.0741 43.8427 66.0741 46.5054C66.0741 46.7698 65.9797 46.8265 65.7342 46.8265C65.1676 46.8076 64.5822 46.8076 64.0157 46.8265C63.7702 46.8265 63.6569 46.7509 63.6758 46.5054C63.6569 46.1466 63.638 45.8067 63.638 45.4479Z" fill="white"/>
<path d="M46.8261 39.8768C46.8261 41.4254 46.845 42.974 46.8072 44.5225C46.8072 44.9002 46.9205 45.0324 47.2794 44.9757C47.8081 44.8813 47.997 45.1079 47.9026 45.5989C47.9026 45.6745 47.9026 45.7689 47.9026 45.8444C47.9026 46.8642 47.9026 46.8642 46.9017 46.8265C46.5995 46.8265 46.3162 46.8076 46.0141 46.7509C45.2209 46.6187 44.5977 45.9955 44.4844 45.2024C44.4277 44.8813 44.39 44.5603 44.39 44.2204C44.39 41.2365 44.39 38.2339 44.3711 35.2501C44.3711 34.8724 44.4466 34.7213 44.8432 34.759C45.3531 34.7968 45.863 34.7968 46.3729 34.759C46.6939 34.7402 46.8261 34.8346 46.8072 35.1934C46.8261 36.7608 46.8261 38.3094 46.8261 39.8768Z" fill="white"/>
<path d="M2.9757 41.1611C2.9757 42.5397 2.9757 43.9182 2.9757 45.2968C2.9757 45.599 3.05124 45.7123 3.37228 45.6745C3.56113 45.6557 3.76886 45.6934 3.95771 45.6745C4.4676 45.599 4.61868 45.7878 4.59979 46.2977C4.58091 46.7321 4.50537 46.8643 4.05213 46.8454C2.86239 46.8076 1.65376 46.8265 0.445127 46.8454C0.124085 46.8454 -0.0458795 46.7699 0.0107751 46.411C0.0296599 46.2977 0.0296599 46.1844 0.0107751 46.0711C-0.0269946 45.7878 0.0485436 45.6557 0.369586 45.6745C0.671743 45.7123 0.955016 45.6557 1.25717 45.6934C1.55933 45.7123 1.61599 45.599 1.61599 45.3157C1.61599 42.5208 1.61599 39.7258 1.61599 36.9309C1.61599 36.6854 1.55933 36.572 1.29495 36.5909C1.06833 36.6098 0.822823 36.572 0.61509 36.5909C0.142968 36.6665 0.0107751 36.5154 0.0107751 36.0244C0.0107751 35.5334 0.124084 35.4201 0.61509 35.439C1.80483 35.4767 2.9757 35.4578 4.16544 35.439C4.50537 35.439 4.65645 35.5145 4.59979 35.8733C4.58091 36.0244 4.58091 36.1755 4.59979 36.3265C4.61868 36.5532 4.52425 36.6098 4.31652 36.6098C4.01436 36.5909 3.69332 36.6287 3.37228 36.5909C3.05124 36.5532 2.9757 36.6665 2.99458 36.9686C2.9757 38.3661 2.9757 39.7636 2.9757 41.1611Z" fill="white"/>
</svg>
