<svg width="100" height="13" viewBox="0 0 100 13" fill="none" xmlns="http://www.w3.org/2000/svg">
<path d="M41.6265 8.30709H47.9979L44.6289 3.11819L38.4457 12.5H35.6316L43.1525 1.23044C43.4795 0.775091 44.0244 0.5 44.6289 0.5C45.2135 0.5 45.7585 0.765608 46.0756 1.21146L53.6262 12.5H50.8121L49.4843 10.4035H43.0335L41.6265 8.30709ZM70.8578 10.4035V0.613838H68.4698V11.3616C68.4698 11.6557 68.5887 11.9403 68.8166 12.1585C69.0445 12.3767 69.3517 12.5 69.6886 12.5H80.5785L81.9856 10.4035H70.8578ZM31.3509 8.64861C33.6696 8.64861 35.5523 6.85573 35.5523 4.63596C35.5523 2.41621 33.6696 0.613838 31.3509 0.613838H20.9039V12.5H23.291V2.71027H31.1924C32.3022 2.71027 33.194 3.5735 33.194 4.63596C33.194 5.69841 32.3022 6.56166 31.1924 6.56166L24.4603 6.55216L31.5887 12.5H35.0569L30.261 8.64859L31.3509 8.64861ZM6.20902 12.5C2.78143 12.5 0 9.84384 0 6.56166C0 3.27945 2.78146 0.613838 6.20899 0.613838H13.4256C16.8541 0.613838 19.6336 3.27945 19.6336 6.56166C19.6336 9.84386 16.8541 12.5 13.4256 12.5H6.20902ZM13.2651 10.4035C15.4857 10.4035 17.2842 8.68654 17.2842 6.56166C17.2842 4.43675 15.4857 2.71027 13.2651 2.71027H6.36849C4.1489 2.71027 2.34939 4.43675 2.34939 6.56166C2.34939 8.68654 4.1489 10.4035 6.36849 10.4035H13.2651ZM58.6104 12.5C55.1819 12.5 52.3975 9.84386 52.3975 6.56166C52.3975 3.27945 55.1819 0.613838 58.6104 0.613838H67.1816L65.7845 2.71027H58.7689C56.5493 2.71027 54.746 4.43675 54.746 6.56166C54.746 8.68654 56.5493 10.4035 58.7689 10.4035H67.3798L65.9727 12.5H58.6104ZM87.812 10.4035C85.9789 10.4035 84.4232 9.22725 83.9475 7.60513H94.1537L95.5608 5.50868H83.9475C84.4232 3.89604 85.9789 2.71027 87.812 2.71027H94.8177L96.2346 0.613838H87.6535C84.225 0.613838 81.4406 3.27945 81.4406 6.56166C81.4406 9.84386 84.225 12.5 87.6535 12.5H95.0158L96.4229 10.4035H87.812ZM97.5129 1.8755C97.5125 1.73836 97.5404 1.60249 97.595 1.47571C97.6496 1.34892 97.7299 1.23373 97.8312 1.13676C97.9325 1.03978 98.0528 0.962932 98.1852 0.910633C98.3177 0.858335 98.4596 0.831617 98.6029 0.832018C99.2172 0.832018 99.7027 1.29684 99.7027 1.8755C99.7027 2.46363 99.2172 2.92845 98.6029 2.92845C97.9984 2.92845 97.5129 2.46363 97.5129 1.8755ZM98.6029 3.22252C99.3757 3.22252 100 2.62489 100 1.88498C100 1.14505 99.3757 0.547429 98.6029 0.547429C97.8398 0.547429 97.2156 1.14505 97.2156 1.88498C97.2156 2.62489 97.8398 3.22252 98.6029 3.22252ZM98.474 1.08814C98.692 1.08814 98.7812 1.09763 98.8803 1.13556C99.1577 1.22095 99.1874 1.45809 99.1874 1.55296C99.1874 1.57193 99.1874 1.61936 99.1676 1.67627C99.1578 1.7332 99.1181 1.84702 98.9794 1.9324C98.9596 1.94189 98.9497 1.95138 98.91 1.97036L99.2668 2.58695H98.9199L98.6029 2.01779H98.3849V2.58695H98.0777V1.08814H98.474ZM98.583 1.77114C98.6821 1.76166 98.7812 1.76166 98.8406 1.67627C98.8703 1.63834 98.8803 1.60039 98.8803 1.54348C98.8803 1.46759 98.8307 1.40118 98.7614 1.36323C98.692 1.33479 98.6227 1.33479 98.474 1.33479H98.3849V1.77114H98.583Z" fill="#F80000"/>
</svg>
