<svg width="102" height="15" viewBox="0 0 102 15" fill="none" xmlns="http://www.w3.org/2000/svg">
<path d="M10.5402 14.999H3.06019C-0.475799 10.9727 -1.0028 5.35166 1.7682 0.820076L6.61319 8.65166L11.9682 -0.000976562H19.8392L10.5402 14.999ZM25.0412 0.851654C27.7441 5.36744 27.2341 10.9569 23.7662 14.999H16.4222L18.6832 11.2885H15.6912L19.2102 5.52534H22.2192L25.0412 0.851654ZM32.5041 7.72008C32.5041 11.0043 34.1191 12.5832 36.9071 12.5832C39.6951 12.5832 41.3101 11.0201 41.3101 7.72008C41.3101 4.42008 39.6951 2.84113 36.9071 2.84113C34.1191 2.84113 32.5041 4.40429 32.5041 7.72008ZM31.2291 7.72008C31.2291 3.72534 33.3711 1.79902 36.8901 1.79902C40.4091 1.79902 42.5511 3.72534 42.5511 7.72008C42.5511 11.6832 40.4091 13.6253 36.8901 13.6253C33.3711 13.6253 31.2291 11.6832 31.2291 7.72008ZM48.1441 11.3359L44.4551 2.25692C44.4041 2.11481 44.2171 1.87797 43.8771 1.87797C43.5371 1.87797 43.2651 2.1306 43.2651 2.44639C43.2651 2.54113 43.2991 2.65165 43.3161 2.69902L47.5661 13.1043C47.6511 13.3411 47.9061 13.499 48.1441 13.499C48.3821 13.499 48.6371 13.3411 48.7221 13.1043L52.9721 2.69902C52.9891 2.65165 53.0231 2.54113 53.0231 2.44639C53.0231 2.1306 52.7511 1.87797 52.4111 1.87797C52.0711 1.87797 51.8841 2.11481 51.8331 2.25692L48.1441 11.3359ZM61.9311 8.08324V12.9464C61.9311 13.2464 62.2031 13.5148 62.5431 13.5148C62.8831 13.5148 63.1551 13.2464 63.1551 12.9464V2.46218C63.1551 2.16218 62.8831 1.89376 62.5431 1.89376C62.2031 1.89376 61.9311 2.16218 61.9311 2.46218V7.04113H55.6071V2.46218C55.6071 2.16218 55.3351 1.89376 54.9951 1.89376C54.6551 1.89376 54.3831 2.16218 54.3831 2.46218V12.9464C54.3831 13.2464 54.6551 13.5148 54.9951 13.5148C55.3351 13.5148 55.6071 13.2464 55.6071 12.9464V8.08324H61.9311ZM69.0031 5.49376C66.6571 5.49376 65.2631 6.77271 65.2631 9.53587C65.2631 12.299 66.6571 13.6096 69.0031 13.6096C70.4821 13.6096 71.3491 13.0096 71.7401 12.6938C71.9271 12.5359 71.9781 12.4253 71.9781 12.2674C71.9781 11.999 71.7401 11.778 71.4511 11.778C71.3151 11.778 71.2301 11.8096 71.1111 11.8885C70.6861 12.1727 70.0571 12.6148 69.0031 12.6148C67.3371 12.6148 66.4361 11.6359 66.4361 9.52008C66.4361 7.45166 67.3201 6.44113 69.0031 6.44113C70.2101 6.44113 70.6861 6.94639 70.9581 7.2306C71.0771 7.37271 71.2131 7.43587 71.4001 7.43587C71.6891 7.43587 71.9271 7.2306 71.9271 6.94639C71.9271 6.83586 71.8931 6.74113 71.7911 6.6306C71.5021 6.28323 70.6181 5.49376 69.0031 5.49376ZM74.8001 1.90955C74.8001 1.62534 74.5451 1.37271 74.2221 1.37271C73.9161 1.37271 73.6441 1.62534 73.6441 1.90955V11.5411C73.6441 12.8359 74.3241 13.5148 75.5311 13.5148C75.8201 13.5148 76.0751 13.2938 76.0751 13.0096C76.0751 12.7253 75.8201 12.5043 75.5311 12.5043C75.0381 12.5043 74.8001 12.2201 74.8001 11.5411V1.90955ZM83.504 9.53587C83.504 7.40429 82.535 6.47271 80.869 6.47271C79.203 6.47271 78.234 7.42008 78.234 9.53587C78.234 11.699 79.203 12.6306 80.869 12.6306C82.552 12.6306 83.504 11.699 83.504 9.53587ZM84.694 9.53587C84.694 12.299 83.249 13.6096 80.886 13.6096C78.5401 13.6096 77.0781 12.3148 77.0781 9.53587C77.0781 6.77271 78.5571 5.49376 80.886 5.49376C83.232 5.49376 84.694 6.77271 84.694 9.53587ZM87.499 6.12534C87.499 5.82534 87.227 5.5885 86.921 5.5885C86.598 5.5885 86.343 5.82534 86.343 6.12534V10.5306C86.343 12.1411 86.921 13.5938 89.726 13.5938C92.548 13.5938 93.109 12.1253 93.109 10.5306V6.12534C93.109 5.82534 92.854 5.5885 92.548 5.5885C92.225 5.5885 91.953 5.82534 91.953 6.12534V10.5306C91.953 11.6201 91.579 12.5674 89.743 12.5674C87.907 12.5674 87.533 11.6201 87.533 10.5306V6.12534M100.844 7.95692C100.844 7.95692 100.147 6.47271 98.447 6.47271C96.798 6.47271 95.88 7.46745 95.88 9.53587C95.88 11.6517 96.764 12.6306 98.447 12.6306C99.841 12.6306 100.844 11.8885 100.844 10.278V7.95692ZM100.844 6.58324V1.90955C100.844 1.60955 101.099 1.37271 101.422 1.37271C101.745 1.37271 102 1.60955 102 1.90955V10.278C102 12.5043 100.504 13.6096 98.447 13.6096C96.101 13.6096 94.724 12.3148 94.724 9.53587C94.724 6.77271 96.033 5.49376 98.379 5.49376C99.535 5.49376 100.419 6.04639 100.844 6.58324Z" fill="#5360E4"/>
</svg>
