<svg width="24" height="24" viewBox="0 0 24 24" fill="none" xmlns="http://www.w3.org/2000/svg">
<rect width="24" height="24" rx="4" fill="#1A1A1A"/>
<path d="M12.0826 6.37595C12.0826 6.02962 12.0826 5.68329 12.0732 5.32761C12.0732 5.16848 12.1668 5.08424 12.2792 5H12.4196C12.5787 5.0936 12.6255 5.22464 12.6255 5.40249C12.6161 5.82369 12.6255 6.2449 12.6255 6.66611C12.6255 6.75035 12.6442 6.84396 12.5787 6.91884C12.4383 6.75971 12.5319 6.57251 12.5038 6.40403C12.4945 6.17938 12.5038 5.94538 12.5506 5.72073C12.5413 5.88922 12.5132 5.90794 12.2136 5.80498C12.1949 5.92666 12.223 6.04834 12.2043 6.17002C12.1856 6.2449 12.223 6.35722 12.0826 6.37595Z" fill="#33D9DD"/>
<path d="M7.86098 17.9828C6.75647 17.8611 5.9515 17.2995 5.41797 16.3354C5.43669 16.1763 5.54901 16.2605 5.60517 16.2792C5.74558 16.3354 5.87662 16.4103 5.9983 16.4945C5.98894 16.4384 5.88598 16.3635 6.00766 16.3167C6.46631 16.897 7.03728 17.2901 7.76737 17.4399C7.86098 17.5148 7.9733 17.4305 8.0669 17.4867C8.05754 17.6084 7.95458 17.5709 7.8797 17.5897C7.88906 17.5803 7.90778 17.5897 7.91714 17.599C8.23538 17.8892 8.62851 17.8892 9.02164 17.8705C9.0778 17.8705 9.13396 17.8705 9.19012 17.8986C9.2182 17.9079 9.23692 17.936 9.24628 17.9547C9.24628 17.9828 9.2182 18.0109 9.19012 18.0109C8.75955 17.9922 8.31026 18.0202 7.86098 17.9828Z" fill="#0062FE"/>
<path d="M6.97396 10.1948C6.89908 10.1948 6.81484 10.1667 6.75868 10.1199L5.58866 9.44597C5.42017 9.34301 5.28913 9.21197 5.41081 9.0154C5.52314 8.80948 5.69162 8.86564 5.85074 8.95924C6.25323 9.19325 6.65572 9.41789 7.05821 9.65189C7.18925 9.72678 7.27349 9.8391 7.22669 9.99822C7.20797 10.1199 7.09565 10.2041 6.97396 10.1948Z" fill="#0C9EEF"/>
<path d="M8.06751 17.4961C7.97391 17.468 7.86159 17.5335 7.77734 17.4399C8.94737 17.4867 10.1174 17.4493 11.2874 17.468C11.3717 17.468 11.4653 17.4774 11.5495 17.4867C11.6993 17.5616 11.8584 17.4961 12.0081 17.5242C12.0737 17.5429 12.1392 17.5803 12.1953 17.6365C12.4106 17.8143 12.654 17.9267 12.9442 17.8705C13.0284 17.8799 13.122 17.8612 13.1688 17.9641C13.1126 18.0484 13.019 18.0109 12.9442 18.0109C12.5978 18.0109 12.2515 18.0109 11.9052 18.0109C11.8303 17.9922 11.7648 17.9828 11.6899 17.9922C11.3249 18.0296 10.9972 17.9828 10.7258 17.702C10.6416 17.6178 10.5292 17.6365 10.4263 17.6271C9.67746 17.571 8.92865 17.5803 8.17983 17.571C8.14239 17.5523 8.09559 17.5242 8.06751 17.4961Z" fill="#0676FC"/>
<path d="M12.0365 17.5336C11.8774 17.5055 11.6996 17.5991 11.5498 17.4774C12.1863 17.4587 12.8228 17.4587 13.4593 17.4774C13.6371 17.5429 13.8243 17.5055 14.0115 17.5055C14.1239 17.4961 14.2362 17.5336 14.3298 17.6085C14.5076 17.7863 14.7603 17.8799 15.0131 17.8612C15.0786 17.8518 15.2377 17.805 15.2003 17.9922C14.5919 17.9922 13.9835 18.011 13.375 17.9735C13.3002 17.9829 13.2253 17.9642 13.1691 17.9267H12.9258C12.6449 17.7582 12.3735 17.571 12.0365 17.5336Z" fill="#0080F9"/>
<path d="M9.0591 6.80664C9.19015 7.02192 9.32119 7.2372 9.44287 7.45249C9.53647 7.61161 9.52711 7.78009 9.35863 7.8737C9.19015 7.9673 9.04974 7.88306 8.95614 7.72394C8.76894 7.38697 8.58173 7.05936 8.39453 6.72239C8.44133 6.52583 8.57237 6.61007 8.66598 6.64751C8.80638 6.70368 8.93742 6.75983 9.0591 6.80664Z" fill="#20BCE6"/>
<path d="M15.7607 17.4865C16.2756 17.4771 16.7904 17.3835 17.2677 17.1963C17.5298 17.2056 17.7077 17.3461 17.717 17.5333C17.3988 17.7485 17.0244 17.8889 16.6406 17.9451C16.6312 17.9264 16.6312 17.8983 16.65 17.8796C16.678 17.8609 16.7061 17.8609 16.7904 17.8609C16.6687 17.8609 16.5564 17.8047 16.4815 17.7205C16.3598 17.5894 16.1726 17.5333 15.9947 17.5801C15.9105 17.5988 15.7888 17.6456 15.7607 17.4865Z" fill="#0290F3"/>
<path d="M15.2187 17.9733C15.1625 17.9265 15.0877 17.9078 15.0128 17.9359C14.7507 17.9827 14.4792 17.8891 14.3014 17.6925C14.161 17.5428 14.0019 17.5428 13.824 17.5428C13.7023 17.5428 13.5619 17.5989 13.459 17.496C13.8708 17.4773 14.2733 17.4773 14.6852 17.496C14.7039 17.5241 14.732 17.5334 14.7694 17.5241C15.1157 17.4866 15.434 17.5334 15.6961 17.8049C15.7897 17.9078 15.9394 17.861 16.0705 17.8704C16.1734 17.8797 16.3045 17.8236 16.3513 17.9827L16.2202 17.9921C15.8833 18.0201 15.5557 18.0201 15.2187 17.9733Z" fill="#0185F7"/>
<path d="M16.3517 17.9735C16.2955 17.9267 16.2206 17.908 16.1457 17.9267C15.8743 17.9642 15.6403 17.908 15.4531 17.6927C15.3127 17.5336 15.1348 17.5149 14.9289 17.5336C14.8447 17.5429 14.7511 17.571 14.6855 17.4774C15.0412 17.4587 15.4063 17.4587 15.762 17.4774C15.79 17.5336 15.8556 17.5523 15.9117 17.5242C16.2393 17.3838 16.4359 17.5804 16.6699 17.7582C16.8103 17.8612 16.6886 17.8799 16.6512 17.9267C16.5576 17.9829 16.4546 17.9922 16.3517 17.9735Z" fill="#018AF5"/>
<path d="M19.0833 9.44627L18.4001 9.83939C18.1005 9.80195 17.9882 9.71771 17.9414 9.49307C18.1754 9.32459 18.4281 9.18418 18.6902 9.0625C18.8774 9.11866 19.0272 9.25906 19.0833 9.44627Z" fill="#2FD5DD"/>
<path d="M6.018 16.3165C5.95248 16.4475 6.12096 16.4756 6.13032 16.6254C5.98056 16.5411 5.84952 16.4662 5.71847 16.4007C5.62487 16.3539 5.54063 16.251 5.41895 16.3446C5.2879 16.1199 5.15686 15.9046 5.12878 15.6425C5.06326 15.446 5.17558 15.446 5.2879 15.5209C5.40959 15.5957 5.52191 15.6613 5.66231 15.6332C5.70911 15.8953 5.9244 16.0731 6.018 16.3165Z" fill="#0166FE"/>
<path d="M17.7169 17.5332C17.6513 17.3085 17.408 17.3179 17.2676 17.1962L18.0445 16.7095C18.1662 16.8312 18.3908 16.8686 18.4002 17.1026C18.1942 17.2711 17.9883 17.4489 17.7169 17.5332Z" fill="#0797F1"/>
<path d="M18.6915 12.4598L18.4014 12.0666C18.4294 11.8326 18.6073 11.7671 18.7945 11.7109C19.0379 11.973 19.2344 12.2726 19.3748 12.5908C19.3093 12.7312 19.2063 12.675 19.1127 12.6376C18.9723 12.5814 18.8319 12.5066 18.6915 12.4598Z" fill="#24C3E4"/>
<path d="M5.67242 15.6242C5.53202 15.802 5.42906 15.6616 5.30738 15.5774C5.23249 15.5212 5.12953 15.4182 5.12953 15.6242C5.05465 15.4276 5.01721 15.2123 5.02657 14.997C4.99849 14.7349 5.00785 14.7256 5.35418 14.7256C5.49458 14.7256 5.55074 14.8005 5.54138 14.9409C5.52266 15.0251 5.53202 15.1 5.5601 15.1749L5.67242 15.6242Z" fill="#016AFE"/>
<path d="M15.2194 17.9731L16.2209 17.9825C16.1086 18.0199 15.9963 18.0293 15.884 18.0106C13.3287 18.0106 10.7827 18.0106 8.22735 18.0106C8.10567 18.0106 7.98399 18.0293 7.8623 17.9825L9.24761 17.9731C9.39737 17.8702 9.5565 17.917 9.71562 17.917C9.90282 17.9076 10.09 17.917 10.2772 17.9076C10.8201 17.8795 11.3443 17.9731 11.8872 17.9731C12.2522 17.9731 12.6266 17.9731 12.9917 17.9825C13.0572 17.9825 13.1227 17.9918 13.1695 17.9357C13.8528 17.9731 14.5361 17.9918 15.2194 17.9731Z" fill="#067CFA"/>
<path d="M19.6363 15.0063C19.6082 15.2216 19.5707 15.4369 19.4303 15.6241C19.2431 15.596 19.0466 15.6053 18.9717 15.3713C19.084 15.0437 19.1589 14.6974 19.187 14.3511C19.2712 14.3511 19.2806 14.4166 19.2806 14.4634C19.2712 14.6693 19.3835 14.791 19.5614 14.8565C19.6175 14.8659 19.6456 14.922 19.6363 14.9688C19.6456 14.9876 19.6456 14.9969 19.6363 15.0063Z" fill="#17ADEB"/>
<path d="M17.6629 10.8315C18.0653 11 18.4304 11.2715 18.7018 11.6084C18.7486 11.8144 18.5521 11.8237 18.4491 11.908C18.3742 11.9641 18.3087 11.8612 18.2619 11.805C18.056 11.5616 17.8594 11.2996 17.6441 11.0562C17.5318 10.9158 17.5412 10.8783 17.6629 10.8315Z" fill="#28C7E3"/>
<path d="M9.06111 6.80645C8.9207 6.90005 8.81774 6.78773 8.71478 6.72221C8.61182 6.65668 8.51822 6.60988 8.41525 6.72221C8.34973 6.6286 8.29357 6.535 8.23741 6.43204C8.17189 6.301 8.21869 6.14188 8.34973 6.07635C8.4995 5.99211 8.62118 6.04827 8.70542 6.16996C8.83646 6.38524 8.93942 6.60052 9.06111 6.80645Z" fill="#24C1E5"/>
<path d="M15.7529 6.60965C15.8372 6.45988 15.9121 6.31012 16.0057 6.16972C16.0899 6.04804 16.2209 5.98252 16.3613 6.07612C16.4924 6.14164 16.5392 6.30076 16.4737 6.4318C16.4737 6.44116 16.4643 6.45053 16.4549 6.45989C16.3707 6.60029 16.2958 6.74069 16.2116 6.87173C16.0057 6.87173 15.8653 6.76877 15.7529 6.60965Z" fill="#36E3DA"/>
<path d="M15.752 6.60986L16.2107 6.87195C16.0983 7.06851 16.0141 7.2838 15.8737 7.46164C15.6771 7.48036 15.4993 7.3774 15.415 7.19956L15.752 6.60986Z" fill="#32DCDC"/>
<path d="M12.0832 6.37587C12.2049 6.16058 12.0832 5.91722 12.1581 5.67385C12.2704 5.70193 12.336 5.84234 12.4483 5.81426C12.5981 5.78618 12.4857 5.62705 12.5793 5.50537V6.36651C12.5606 6.39459 12.5513 6.42267 12.5513 6.46011C12.5325 6.65667 12.4857 6.68475 12.3079 6.60987C12.2704 6.59115 12.2517 6.55371 12.2049 6.55371C12.1768 6.68475 12.2424 6.83452 12.13 6.94684C12.0177 6.76899 12.0926 6.57243 12.0832 6.37587Z" fill="#2DD3DE"/>
<path d="M17.9434 9.49268C18.037 9.68924 18.2242 9.75476 18.402 9.839C18.2429 9.94196 18.0744 10.0449 17.9059 10.1385C17.7562 10.2134 17.6064 10.2415 17.5034 10.0543C17.4192 9.89516 17.4754 9.75476 17.6158 9.6518C17.7281 9.59564 17.8404 9.54884 17.9434 9.49268Z" fill="#2ED0E0"/>
<path d="M18.4006 17.0932C18.3444 16.906 18.0824 16.906 18.0449 16.7001L18.5036 16.2134C18.6253 16.3444 18.8125 16.4006 18.9061 16.5597C18.7657 16.7656 18.5972 16.9435 18.4006 17.0932Z" fill="#0C9EEF"/>
<path d="M19.5257 12.9844C19.741 13.546 19.7878 14.1638 19.6848 14.7628C19.5725 14.6598 19.61 14.5194 19.6006 14.3978C19.6006 14.2293 19.61 14.0514 19.6006 13.883C19.5538 13.7238 19.3947 13.6957 19.2824 13.6302C19.2168 13.6957 19.2636 13.7987 19.1794 13.8455L19.039 13.1997C18.9828 13.0593 19.0296 13.0125 19.1607 13.0686C19.2917 13.1248 19.4228 13.1061 19.5257 12.9844Z" fill="#21BCE6"/>
<path d="M19.5274 12.9844C19.49 13.1809 19.387 13.2277 19.2091 13.1248C19.1811 13.1061 19.0219 12.975 19.0407 13.1809C18.9283 12.9376 18.8067 12.6942 18.6943 12.4509C18.8535 12.3947 18.9564 12.507 19.0875 12.5632C19.1811 12.6006 19.2747 12.6755 19.3776 12.5913C19.4525 12.7129 19.4993 12.844 19.5274 12.9844Z" fill="#22BFE5"/>
<path d="M19.6746 13.7705C19.6746 14.0981 19.684 14.4351 19.684 14.7627C19.6934 14.8469 19.6746 14.9312 19.6372 15.0061C19.6372 14.9873 19.6372 14.9593 19.6278 14.9593C19.3283 14.8657 19.2066 14.6504 19.1973 14.3508V14.2947C19.2253 14.1356 19.2253 13.9484 19.4781 14.07C19.5623 14.1075 19.553 14.0139 19.5623 13.9577C19.5904 13.9016 19.5436 13.7892 19.6746 13.7705Z" fill="#1CB4E8"/>
<path d="M8.55273 9.7831C8.89906 9.34318 9.32963 8.97813 9.82572 8.71604C9.9474 8.66924 9.96612 8.7254 9.91932 8.819C9.86316 8.90324 9.807 8.97813 9.73212 9.03429C9.52619 9.24021 9.30155 9.42742 9.06754 9.5959C8.96458 9.6895 8.8429 9.76438 8.72122 9.8299C8.63698 9.88607 8.63698 9.87671 8.55273 9.7831Z" fill="#24B1EC"/>
<path d="M15.4061 7.19971C15.5466 7.31203 15.6963 7.40563 15.8648 7.46179C15.8086 7.56475 15.7618 7.67707 15.6963 7.78004C15.6121 7.91108 15.481 7.96724 15.3406 7.883C15.2002 7.79876 15.1347 7.67708 15.2283 7.50859C15.2845 7.40563 15.35 7.30267 15.4061 7.19971Z" fill="#32D7DD"/>
<path d="M17.6619 10.8316C17.5403 10.9159 17.6432 10.9627 17.69 11.0095C17.8772 11.2341 18.0644 11.4494 18.2516 11.674C18.4576 11.9174 18.5512 11.9081 18.7009 11.5992C18.7477 11.6179 18.7852 11.6553 18.7945 11.7021C18.6635 11.8145 18.4856 11.8893 18.4014 12.0578L17.8679 11.5711C17.7181 11.2809 17.4841 11.0563 17.2969 10.8036C17.2314 10.7193 17.1565 10.6444 17.353 10.6725C17.4373 10.7661 17.5871 10.7099 17.6619 10.8316Z" fill="#31C8E4"/>
<path d="M18.8966 16.5695C18.7562 16.4666 18.5316 16.4479 18.4941 16.2232L18.7749 15.7739C18.9341 15.8675 19.0651 15.9986 19.1868 16.139C19.1026 16.2794 19.0464 16.4479 18.8966 16.5695Z" fill="#10A3EE"/>
<path d="M10.5576 8.37924C10.698 8.30435 10.8478 8.25755 10.9975 8.22947C11.1286 8.20139 11.1567 8.25755 11.0631 8.34179C10.8478 8.53836 10.6512 8.75364 10.4734 8.97829L9.88368 9.31525C9.75264 9.22165 9.86496 9.15613 9.91176 9.09061C10.0615 8.91276 10.2206 8.75364 10.3891 8.60388C10.4547 8.53836 10.567 8.50092 10.5576 8.37924Z" fill="#35BDEA"/>
<path d="M19.197 16.1293C19.0192 16.0637 18.8694 15.9327 18.7852 15.7642C18.8507 15.6332 18.9162 15.5021 18.9817 15.3711C19.094 15.5209 19.2812 15.5302 19.4404 15.6238C19.3655 15.8017 19.3374 15.9982 19.197 16.1293Z" fill="#14A7ED"/>
<path d="M5.03609 14.4816C5.03609 14.2851 5.07353 14.0885 5.13905 13.9106C5.33561 14.0698 5.48538 14.2851 5.5509 14.5284C5.5977 14.6875 5.54154 14.7999 5.34497 14.7624H5.27009C4.99865 14.7718 4.99865 14.7718 5.03609 14.4816Z" fill="#0677FD"/>
<path d="M9.06851 9.9983L8.71282 10.4382C8.44137 10.5412 8.28225 10.8033 8.02953 10.9343C7.98272 10.9624 7.94528 11.0186 7.88912 11.0186C7.79552 11.0279 7.79552 10.9811 7.83296 10.9156C7.84232 10.8407 7.87976 10.7658 7.92656 10.719C8.17929 10.4757 8.45073 10.2417 8.73154 10.0357C8.80642 9.98894 8.86258 9.91406 8.95618 9.91406C9.01234 9.92342 9.04978 9.9515 9.06851 9.9983Z" fill="#39AFF1"/>
<path d="M19.6748 13.7705C19.6186 13.8173 19.628 13.8922 19.628 13.9484C19.628 14.1449 19.6374 14.2853 19.3753 14.1075C19.1881 13.9858 19.291 14.2573 19.1974 14.2947L19.1787 13.8267C19.1974 13.4897 19.2068 13.4804 19.5063 13.6676C19.5625 13.705 19.6467 13.705 19.6748 13.7705Z" fill="#1EB7E7"/>
<path d="M11.1569 8.72533C11.1194 8.76278 11.0633 8.77213 11.0071 8.76277C10.8854 8.72533 10.8854 8.65981 10.951 8.57557C10.9884 8.52877 11.0258 8.49133 11.0633 8.45389C11.1382 8.36965 11.2224 8.29477 11.316 8.23861C11.3534 8.24797 11.316 8.1918 11.316 8.21989C11.316 8.22925 11.3066 8.22925 11.2973 8.22925C11.2598 8.22925 11.213 8.21053 11.1943 8.18244C11.3815 8.10756 11.5781 8.07948 11.7746 8.07948C11.8308 8.06076 11.887 8.03268 11.9338 8.08884C11.9619 8.11692 11.9338 8.15436 11.9057 8.17308C11.6717 8.36965 11.4658 8.62237 11.1569 8.72533Z" fill="#46C8E9"/>
<path d="M9.06828 9.99854L8.95596 9.95174C8.91851 9.88622 8.94659 9.8207 8.96532 9.74582C8.9934 9.68966 9.03084 9.65222 9.07764 9.61477C9.29292 9.46501 9.48949 9.29653 9.69541 9.12805C9.77029 9.09997 9.85453 9.05316 9.92941 9.11869C9.90133 9.18421 9.81709 9.23101 9.88261 9.31525C9.60181 9.52117 9.321 9.75518 9.06828 9.99854Z" fill="#33B4ED"/>
<path d="M11.194 8.18246H11.4092C11.2688 8.33222 11.1472 8.46327 11.0161 8.58495C10.9506 8.65047 10.9038 8.69727 10.9974 8.77215L10.4639 8.97808C10.5575 8.67855 10.8008 8.50071 11.0161 8.30414C11.1004 8.22926 11.0255 8.24798 10.988 8.22926C11.0536 8.18246 11.1284 8.1731 11.194 8.18246Z" fill="#3CC2E9"/>
<path d="M15.0775 8.875C15.218 8.91244 15.3396 8.99668 15.4239 9.11837C15.3584 9.30557 15.1805 9.42725 14.9839 9.40853L14.5908 9.16517C14.7499 9.07156 14.8903 8.94052 15.0775 8.875Z" fill="#E1F7FA"/>
<path d="M19.0875 9.4461L18.6943 9.06233C18.7599 9.02489 18.816 8.98745 18.8815 8.95001C19.0407 8.83769 19.1904 8.83769 19.3027 9.01553C19.4057 9.19337 19.3308 9.31506 19.1811 9.40866C19.153 9.41802 19.1249 9.43674 19.0875 9.4461Z" fill="#34DBDC"/>
<path d="M12.1406 6.95631V6.4415C12.3278 6.57254 12.515 6.73166 12.5806 6.37598C12.5806 6.56318 12.5806 6.74103 12.5899 6.92823C12.4402 7.12479 12.3185 7.13415 12.1406 6.95631Z" fill="#2BCFE0"/>
<path d="M7.82449 10.9249C7.83385 10.9811 7.85257 11.0279 7.90873 10.9717C8.08658 10.7939 8.32994 10.7003 8.47971 10.4943C8.53587 10.4101 8.61075 10.3727 8.70435 10.4475L8.46099 10.8407C8.27378 10.9062 8.1521 11.0466 8.02106 11.1776C7.94618 11.2525 7.86193 11.318 7.77769 11.3742C7.73089 11.4023 7.66537 11.4304 7.67473 11.318C7.69345 11.1589 7.74961 11.0372 7.82449 10.9249Z" fill="#40AFF2"/>
<path d="M8.02098 14.1541C8.14267 14.4817 8.09586 14.6033 7.78698 14.7531C7.73082 14.7812 7.69338 14.7718 7.67466 14.725C7.6185 14.6501 7.58105 14.5472 7.58105 14.4536C7.69338 14.1915 7.8057 14.1166 8.02098 14.1541Z" fill="#E5F1FE"/>
<path d="M17.3421 10.6724C17.314 10.6911 17.2298 10.6631 17.3047 10.7473C17.4732 10.9345 17.6416 11.1311 17.7914 11.337C17.8382 11.4025 17.9318 11.468 17.8569 11.571L17.4638 11.3276C17.3515 11.103 17.1455 10.9345 17.0239 10.7192C16.9864 10.6537 16.8835 10.532 17.0894 10.5788C17.183 10.5882 17.2766 10.6163 17.3421 10.6724Z" fill="#3DCBE6"/>
<path d="M11.1572 8.72537L11.9248 8.09824L11.7844 8.07952C11.9341 8.00463 12.0839 8.04208 12.2336 8.04208C12.2524 8.07952 12.243 8.12632 12.2056 8.1544C12.009 8.30416 11.8873 8.53816 11.644 8.6224L11.1572 8.72537Z" fill="#4FCCEA"/>
<path d="M11.6533 8.62232L12.243 8.04199H12.5893C12.6455 8.12623 12.5987 8.18239 12.5425 8.2292C12.3647 8.3696 12.2149 8.57552 11.9528 8.58488C11.8499 8.64104 11.7469 8.61296 11.6533 8.62232Z" fill="#59D0EA"/>
<path d="M7.48821 14.1073L7.44141 13.864C7.47885 13.7423 7.58181 13.6861 7.66605 13.6206C7.77837 13.5551 7.83453 13.4334 7.81581 13.3117C7.81581 13.2649 7.81581 13.2181 7.81581 13.1619C7.81581 13.0964 7.81581 13.0309 7.81581 12.9654C7.83453 12.8624 7.77837 12.7314 7.92814 12.6846V13.6206C7.97494 13.9108 7.86261 14.0886 7.60989 14.1635C7.56309 14.1728 7.50693 14.1541 7.48821 14.1073Z" fill="#D1E8FD"/>
<path d="M15.3135 10.4758C15.6504 10.326 16.0061 10.3634 16.3525 10.429C16.3431 10.4477 16.315 10.4664 16.2963 10.4758C16.2495 10.4945 16.1933 10.4945 16.1465 10.4945C16.0623 10.4945 15.9781 10.4945 15.8938 10.4945C15.8376 10.4851 15.7815 10.4945 15.7534 10.4477C15.8283 10.6349 16.0249 10.7378 16.1091 10.925H15.8189C15.5756 10.8782 15.3884 10.7098 15.3135 10.4758Z" fill="#79D8EE"/>
<path d="M7.67525 11.2996C7.8531 11.3277 7.90926 11.1592 8.02158 11.075C8.12454 10.9907 8.21815 10.9065 8.31175 10.8129C8.36791 10.7567 8.41471 10.8035 8.47087 10.8222L8.27431 11.2154C8.06838 11.3277 7.88118 11.4587 7.70334 11.6085C7.62845 11.6647 7.55357 11.7302 7.59101 11.5523C7.58165 11.4681 7.60973 11.3745 7.67525 11.2996Z" fill="#47AFF4"/>
<path d="M9.10599 9.65187L9.01239 9.74547C8.83454 10.0263 8.54438 10.176 8.28229 10.3632C8.21677 10.41 8.12317 10.4194 8.17933 10.279C8.28229 10.0918 8.41334 9.92332 8.5631 9.77356C8.64734 9.89524 8.7035 9.7642 8.75966 9.73612C8.86263 9.67995 8.96559 9.60507 9.05919 9.53955C9.08727 9.57699 9.10599 9.61443 9.10599 9.65187Z" fill="#2AADEF"/>
<path d="M15.0778 8.87528C14.9373 9.00632 14.8063 9.16544 14.591 9.16544L14.3477 9.01568C14.46 8.86592 14.6191 8.74423 14.7876 8.67871C14.9093 8.68807 14.9841 8.79103 15.0778 8.87528Z" fill="#D8F4F9"/>
<path d="M8.1711 10.2884C8.18046 10.3539 8.19918 10.3727 8.25534 10.3259C8.49871 10.1293 8.75143 9.94209 9.00416 9.75488C9.00416 9.8204 8.9948 9.89529 8.95735 9.95145C8.62975 10.1855 8.3115 10.4382 8.02134 10.7096C7.99326 10.7377 7.96518 10.7751 7.92773 10.719C7.95581 10.5505 8.0775 10.4288 8.1711 10.2884Z" fill="#30ADF0"/>
<path d="M5.38106 14.744C5.61506 14.716 5.54018 14.5756 5.47466 14.4539C5.36234 14.276 5.22194 14.1076 5.1377 13.911C5.1377 13.8548 5.14706 13.808 5.1845 13.7612C5.3717 13.8174 5.5589 14.0888 5.57762 14.3041L5.56826 15.1746C5.48402 15.0997 5.52146 15.0155 5.52146 14.9219C5.52146 14.8189 5.47466 14.7721 5.3717 14.7815C5.35298 14.7721 5.35298 14.7628 5.35298 14.7534C5.3717 14.7534 5.3717 14.744 5.38106 14.744Z" fill="#1E86FD"/>
<path d="M7.87199 12.9843V13.1809C7.72223 13.3119 7.62863 13.5085 7.38526 13.4804C7.31038 13.1621 7.31038 12.8252 7.38526 12.4976L7.41334 12.5163C7.43206 12.5631 7.45078 12.6099 7.44142 12.6567C7.44142 12.7035 7.44142 12.7503 7.44142 12.7971C7.44142 12.8439 7.44142 12.9094 7.44142 12.9749C7.44142 13.0217 7.44142 13.0779 7.45078 13.1247C7.60055 13.0872 7.69415 12.872 7.87199 12.9843Z" fill="#AED6FC"/>
<path d="M7.48633 14.1073C7.74841 14.098 7.92626 13.9014 7.92626 13.6206C8.0105 13.7891 7.9637 13.9857 8.01986 14.1635C7.80457 14.1541 7.72033 14.3413 7.57993 14.463C7.52377 14.3507 7.48633 14.229 7.48633 14.1073Z" fill="#D9EBFE"/>
<path d="M7.58153 11.5616C7.59089 11.5897 7.58153 11.6645 7.63769 11.5897C7.76873 11.4305 7.97466 11.3744 8.1057 11.2059C8.1525 11.1497 8.20866 11.1872 8.25546 11.2152C8.2461 11.2901 8.21802 11.3556 8.17122 11.4118C8.03082 11.6177 7.78745 11.702 7.60961 11.8705C7.59089 11.8892 7.55345 11.9173 7.52537 11.8892C7.46921 11.8424 7.49729 11.7862 7.51601 11.7301C7.52537 11.6739 7.54409 11.6084 7.58153 11.5616Z" fill="#52B2F5"/>
<path d="M12.7201 8.57576L12.2334 8.56641C12.2334 8.4728 12.3083 8.48216 12.3644 8.46344C12.4112 8.46344 12.458 8.46344 12.5142 8.46344C12.795 8.51025 12.9354 8.27624 13.1507 8.1452C13.1694 8.1452 13.1413 8.12648 13.132 8.13584C13.0665 8.17328 13.0103 8.18264 13.0103 8.07968C13.2069 8.04224 13.3566 8.21072 13.5438 8.18264C13.3098 8.39792 13.1039 8.67873 12.7201 8.57576Z" fill="#7FDCED"/>
<path d="M7.86954 12.9845C7.67298 12.9845 7.56066 13.153 7.38281 13.2747V12.9845C7.44833 12.8535 7.57002 12.788 7.67298 12.7037C7.75722 12.6476 7.81338 12.5727 7.8321 12.4697C7.85082 12.4229 7.86954 12.3761 7.9257 12.3949C7.9257 12.4885 7.9257 12.5914 7.91634 12.685C7.84146 12.7786 7.88826 12.8816 7.86954 12.9845Z" fill="#98CCFB"/>
<path d="M16.156 10.4385H16.3058C16.4836 10.4946 16.6334 10.6163 16.727 10.7754C16.7831 10.8597 16.8299 10.9439 16.7363 11.0375L16.493 10.9814C16.4368 10.9252 16.3526 10.972 16.2964 10.9346C16.3338 10.8784 16.3245 10.8035 16.287 10.7474C16.2309 10.6538 16.1092 10.5789 16.156 10.4385Z" fill="#63D3EB"/>
<path d="M17.09 10.5787C16.9964 10.5881 17.0057 10.6255 17.0619 10.6817C17.1836 10.8314 17.2959 10.9905 17.427 11.1403C17.4738 11.1965 17.5299 11.2526 17.4738 11.3275L17.1836 11.1777C17.1181 10.9718 16.9402 10.8408 16.7998 10.691C16.7624 10.6442 16.7156 10.5974 16.753 10.5412C16.7905 10.4851 16.856 10.5038 16.9028 10.5319C16.9683 10.5225 17.0338 10.5413 17.09 10.5787Z" fill="#4ACEE7"/>
<path d="M15.1252 11.0283L14.7789 11.1219C14.601 11.047 14.4606 10.9066 14.3857 10.7288C14.4887 10.6539 14.601 10.5977 14.7321 10.5884C14.8163 10.7662 14.9567 10.9253 15.1252 11.0283Z" fill="#9EE0F3"/>
<path d="M9.93145 9.11844L9.68808 9.16524C9.67872 9.1278 9.68808 9.09972 9.71616 9.07164C9.92208 8.87508 10.128 8.67852 10.3246 8.47259L10.5586 8.36963C10.6335 8.38835 10.699 8.39771 10.596 8.48195C10.3714 8.69723 10.1561 8.90316 9.93145 9.11844Z" fill="#2DBAE9"/>
<path d="M13.7977 11.7115C13.7415 11.7864 13.6386 11.8144 13.6011 11.908C13.3952 11.88 13.2361 11.7208 13.208 11.5149C13.2642 11.4213 13.3297 11.3371 13.4514 11.3184C13.545 11.4681 13.6573 11.6085 13.7977 11.7115Z" fill="#D8F0FB"/>
<path d="M13.2142 11.5146C13.3265 11.6644 13.4295 11.8142 13.6073 11.9078C13.5699 12.0014 13.4669 12.0295 13.4108 12.1043C13.2049 12.0575 13.1113 11.9078 13.0645 11.7112C13.0738 11.6176 13.13 11.5427 13.2142 11.5146Z" fill="#E2F4FC"/>
<path d="M12.3823 8.52874C12.3261 8.52874 12.27 8.51938 12.2325 8.57554L11.9424 8.5849C12.2045 8.47258 12.4198 8.28538 12.5789 8.04201C12.7099 8.02329 12.841 8.04201 12.972 8.07945C12.9814 8.08881 12.9907 8.10753 12.9907 8.11689C12.9907 8.13561 12.9814 8.13561 12.9814 8.13561C12.7286 8.20114 12.5882 8.40706 12.3823 8.52874Z" fill="#65D4EB"/>
<path d="M15.3126 10.4756C15.4905 10.616 15.5934 10.8313 15.7994 10.9249H15.659C15.4624 10.981 15.2939 10.9623 15.2003 10.747C15.1629 10.6534 15.0225 10.6534 15.0225 10.5411C15.1161 10.4662 15.219 10.4943 15.3126 10.4756Z" fill="#84DAF0"/>
<path d="M10.3235 8.47266C10.3515 8.48202 10.4264 8.50073 10.3796 8.52882C10.1363 8.68794 9.97713 8.94066 9.74313 9.10915C9.70569 9.09043 9.66825 9.06235 9.69633 9.01555C9.76185 8.94066 9.82737 8.87514 9.88353 8.80026C9.93969 8.72538 9.88353 8.72538 9.83673 8.71602C9.97713 8.61306 10.1456 8.52882 10.3235 8.47266Z" fill="#28B8E9"/>
<path d="M15.1255 11.0282C14.9009 11.0002 14.7324 10.8129 14.7324 10.5883L14.8822 10.5415C15.0787 10.6351 15.163 10.8504 15.3221 10.9814C15.2753 11.0376 15.2004 11.0189 15.1255 11.0282Z" fill="#93DDF2"/>
<path d="M12.7197 8.57566C12.8882 8.59438 13.0567 8.53822 13.169 8.41654C13.272 8.31358 13.4217 8.26678 13.5528 8.19189C13.6277 8.19189 13.6932 8.19189 13.7119 8.2855C13.5247 8.41654 13.3843 8.65054 13.1129 8.63182C12.9818 8.6131 12.8414 8.6599 12.7197 8.57566Z" fill="#8CE0EF"/>
<path d="M16.7343 11.037C16.7436 10.7281 16.4722 10.6158 16.3037 10.4379L16.3599 10.4286C16.4254 10.4192 16.5003 10.4473 16.5471 10.4941C16.8092 10.6064 16.987 10.8498 17.0338 11.1306C16.9308 11.1118 16.8279 11.0838 16.7343 11.037Z" fill="#5AD1EA"/>
<path d="M16.3057 10.9249C16.3712 10.9343 16.4554 10.9062 16.5022 10.9811C16.3712 10.9904 16.2402 10.9717 16.1091 10.9343C15.9125 10.8313 15.8096 10.6535 15.6973 10.4756C15.7534 10.4288 15.8096 10.4475 15.8564 10.4475C16.0342 10.5786 16.2402 10.6815 16.3057 10.9249Z" fill="#71D6ED"/>
<path d="M14.245 11.3741C14.217 11.4302 14.1608 11.4677 14.0953 11.4677C13.8519 11.4864 13.7958 11.2805 13.7021 11.1214C13.7396 11.0371 13.8238 11.009 13.8987 10.981C14.0672 11.0652 14.2076 11.1775 14.245 11.3741Z" fill="#BEE8F8"/>
<path d="M7.52412 11.7392L7.54284 11.8609C7.7394 11.6831 7.95469 11.5333 8.17933 11.4116C8.16061 11.5146 8.13253 11.6175 8.07637 11.7018C7.89853 11.786 7.76748 11.9171 7.60836 12.0388C7.57092 12.0668 7.52412 12.123 7.48668 12.0856C7.44924 12.0575 7.4586 11.9826 7.47732 11.9358C7.46796 11.8703 7.48668 11.8047 7.52412 11.7392Z" fill="#5AB4F6"/>
<path d="M5.57672 14.3136C5.44568 14.1264 5.36144 13.9111 5.18359 13.7707C5.19295 13.6771 5.22103 13.5929 5.2772 13.5273C5.4644 13.6865 5.61416 13.8643 5.62352 14.1264C5.63288 14.1919 5.62352 14.2574 5.57672 14.3136Z" fill="#2E8EFC"/>
<path d="M8.06668 11.7578C8.05732 11.8794 8.02924 11.9918 7.97308 12.0947C7.77651 12.2164 7.63611 12.4317 7.39274 12.4785L7.37402 12.4879C7.39274 12.3849 7.3553 12.2819 7.43018 12.1883C7.62675 12.0947 7.76715 11.9169 7.94499 11.8046C7.9918 11.7858 8.01052 11.739 8.06668 11.7578Z" fill="#71BCF8"/>
<path d="M8.06846 11.7579C7.9187 11.9825 7.62854 12.048 7.46941 12.282C7.44133 12.3195 7.45069 12.2165 7.43197 12.1884C7.42261 12.1042 7.43197 12.0199 7.47877 11.9451C7.51621 11.9544 7.42261 12.1229 7.55365 12.0106C7.66598 11.917 7.78766 11.8327 7.89998 11.7391C7.95614 11.6923 8.00294 11.6643 8.07783 11.7111C8.07783 11.7298 8.07783 11.7485 8.06846 11.7579Z" fill="#67B9F8"/>
<path d="M14.78 8.67865C14.6583 8.81905 14.5085 8.94073 14.34 9.02497C14.2464 9.01561 14.1622 8.97817 14.0967 8.92201C14.2558 8.80969 14.4056 8.66929 14.5834 8.57568C14.6583 8.58504 14.7332 8.62249 14.78 8.67865Z" fill="#CCF1F7"/>
<path d="M13.7035 11.1216C13.8626 11.2058 13.9188 11.4117 14.0966 11.4679C14.0592 11.5522 13.9656 11.5709 13.9 11.6177C13.7222 11.5428 13.5724 11.4398 13.5537 11.2245C13.5818 11.159 13.638 11.1216 13.7035 11.1216Z" fill="#C5EBF9"/>
<path d="M15.3227 10.9814C15.0794 10.9346 15.0232 10.6913 14.8828 10.5415H15.0326C15.1168 10.5977 15.2479 10.5977 15.2759 10.7193C15.3321 10.944 15.5006 10.944 15.6691 10.9346C15.5661 11.0002 15.4444 10.9627 15.3227 10.9814Z" fill="#8BDBF0"/>
<path d="M17.0356 11.1216C16.9045 10.8876 16.7641 10.6536 16.5488 10.4851C16.6705 10.4758 16.7922 10.4477 16.8952 10.5226C16.8016 10.5226 16.7173 10.5226 16.8296 10.6443C16.942 10.7472 17.0449 10.8595 17.1385 10.9812C17.176 11.0467 17.2321 11.0936 17.176 11.1778L17.0356 11.1216Z" fill="#52CFE8"/>
<path d="M7.88169 13.3213C7.92849 13.4991 7.81617 13.5834 7.69449 13.677C7.61025 13.7425 7.52601 13.7987 7.44176 13.8642C7.40432 13.808 7.3856 13.7331 7.39496 13.6676C7.50729 13.4804 7.63833 13.3306 7.88169 13.3213Z" fill="#C3E0FC"/>
<path d="M5.90625 12.5819C5.92497 12.4977 5.99985 12.4789 6.05601 12.4321C6.23386 12.5257 6.33682 12.7223 6.29938 12.9189C6.28066 12.9657 6.24322 13.0031 6.19642 13.0125C6.00921 12.9469 5.96241 12.7691 5.90625 12.5819Z" fill="#9CCDFC"/>
<path d="M5.8312 13.5831C5.82184 13.6673 5.7844 13.7516 5.72824 13.8265C5.59719 13.6392 5.43807 13.4708 5.42871 13.2274C5.43807 13.1619 5.46615 13.1151 5.51295 13.0776C5.71888 13.1806 5.7844 13.3772 5.8312 13.5831Z" fill="#59A7FC"/>
<path d="M13.5614 11.2246C13.6456 11.3837 13.8047 11.468 13.9077 11.6177L13.8047 11.7113C13.5707 11.6833 13.4959 11.5241 13.4678 11.3182L13.5614 11.2246Z" fill="#CEEDFA"/>
<path d="M14.3862 10.728C14.5359 10.8403 14.667 10.9714 14.7793 11.1212C14.7044 11.1773 14.6202 11.2054 14.5359 11.2148C14.3768 11.1212 14.2832 10.9527 14.2832 10.7655C14.3113 10.7374 14.3487 10.728 14.3862 10.728Z" fill="#A4E1F4"/>
<path d="M12.9729 8.13575V8.07959C12.9916 8.07959 13.0103 8.07959 13.0197 8.07959C13.0478 8.15447 13.1414 8.09831 13.1882 8.17319C12.9822 8.31359 12.8325 8.56632 12.5236 8.51952C12.4674 8.43528 12.533 8.4072 12.5798 8.36976C12.7014 8.28551 12.8325 8.20127 12.9729 8.13575Z" fill="#73D9EC"/>
<path d="M13.8516 8.28553C13.9358 8.26681 14.02 8.30425 14.0481 8.37913C13.9264 8.49146 13.7767 8.56634 13.6737 8.70674C13.655 8.74418 13.5988 8.75354 13.5614 8.73482L13.552 8.72546C13.4865 8.7161 13.4116 8.74418 13.3555 8.67866C13.421 8.42593 13.655 8.36977 13.8516 8.28553Z" fill="#9DE5F1"/>
<path d="M6.30782 12.9279C6.27974 12.7407 6.14869 12.6003 6.06445 12.4412C6.10189 12.3757 6.14869 12.3289 6.21422 12.3008C6.3827 12.4037 6.4763 12.5909 6.45758 12.7875C6.4295 12.853 6.37334 12.8998 6.30782 12.9279Z" fill="#AED5FC"/>
<path d="M14.2927 10.7754L14.5454 11.2247C14.5267 11.2621 14.4892 11.2808 14.4518 11.2715C14.2646 11.2528 14.1616 11.1404 14.1055 10.8784C14.1429 10.8222 14.2178 10.7848 14.2927 10.7754Z" fill="#ADE4F6"/>
<path d="M14.097 10.8687C14.2374 10.981 14.2374 11.215 14.4433 11.2618L14.2467 11.3647L13.9004 10.9716C13.9659 10.9435 14.0127 10.878 14.097 10.8687Z" fill="#B4E5F6"/>
<path d="M7.39217 12.4883C7.58874 12.3666 7.71042 12.1326 7.9725 12.1045C7.98186 12.1887 7.96314 12.273 7.9257 12.3479C7.80402 12.3853 7.71978 12.4695 7.61682 12.5351C7.54194 12.5819 7.49513 12.6661 7.38281 12.638L7.39217 12.4883Z" fill="#79BFF8"/>
<path d="M5.42816 13.2275C5.5124 13.4335 5.6996 13.5926 5.72768 13.8266C5.70896 13.864 5.6996 13.9015 5.68088 13.9389C5.52176 13.7985 5.38136 13.6487 5.3252 13.4335C5.33456 13.3492 5.372 13.2743 5.42816 13.2275Z" fill="#499EFB"/>
<path d="M6.26074 12.2451L6.4105 12.1421C6.61643 12.1515 6.72875 12.3387 6.71003 12.582L6.56027 12.685C6.43859 12.5539 6.34498 12.4042 6.26074 12.2451Z" fill="#C9E4FC"/>
<path d="M14.2934 8.43506L14.49 8.52866C14.3683 8.7065 14.2186 8.84691 14.0033 8.87499C13.9471 8.87499 13.891 8.88435 13.8535 8.82819C13.919 8.59418 14.1437 8.55674 14.2934 8.43506Z" fill="#B8ECF5"/>
<path d="M5.32512 13.415C5.43744 13.5929 5.61529 13.7146 5.68081 13.9205C5.69017 13.986 5.67145 14.0515 5.62465 14.1077L5.27832 13.5086C5.27832 13.4806 5.29704 13.4431 5.32512 13.415Z" fill="#3D97FB"/>
<path d="M6.70187 12.5911C6.62699 12.432 6.60827 12.2261 6.40234 12.1512L6.55211 12.0576C6.75803 12.1231 6.85163 12.2729 6.84227 12.4975L6.70187 12.5911Z" fill="#D7EBFD"/>
<path d="M13.5537 8.72523C13.6754 8.66907 13.7128 8.52867 13.8345 8.46315C13.9 8.41635 13.9749 8.38827 14.0498 8.37891L14.1434 8.38826C14.106 8.61291 13.8626 8.65971 13.7503 8.81883L13.5537 8.72523Z" fill="#A7E7F2"/>
<path d="M13.9932 8.87514L14.4799 8.52881C14.5173 8.52881 14.5548 8.54753 14.5735 8.57561C14.4425 8.73473 14.3021 8.89386 14.0868 8.92194C14.0587 8.92194 14.0212 8.90322 13.9932 8.87514Z" fill="#C1EEF6"/>
<path d="M13.8551 8.28524C13.7053 8.435 13.4994 8.50988 13.3684 8.67837C13.2841 8.66901 13.1905 8.69709 13.125 8.63156C13.2748 8.59412 13.3871 8.49116 13.4994 8.3882C13.5649 8.33204 13.6492 8.2946 13.7334 8.27588L13.8551 8.28524Z" fill="#93E2F0"/>
<path d="M5.97223 13.3306C5.96287 13.368 5.96287 13.4054 5.91607 13.4148C5.70078 13.3586 5.63526 13.1714 5.5791 12.9842C5.60718 12.9281 5.61654 12.8719 5.6727 12.8345C5.85055 12.9374 5.96287 13.1246 5.97223 13.3306Z" fill="#70B4FC"/>
<path d="M13.75 8.81924C13.7874 8.5946 14.0402 8.56652 14.1431 8.38867L14.2929 8.43547C14.2086 8.63204 13.9746 8.66948 13.853 8.8286L13.75 8.81924Z" fill="#AFEAF3"/>
<path d="M7.39355 12.6377L7.7118 12.3943C7.77732 12.3475 7.84284 12.3007 7.92709 12.3475C7.92709 12.3662 7.92709 12.3756 7.92709 12.3943C7.88964 12.413 7.87092 12.4505 7.88028 12.4879C7.72116 12.5909 7.6182 12.7968 7.39355 12.7781V12.6377Z" fill="#82C3F9"/>
<path d="M6.26026 12.2446C6.41939 12.3382 6.52235 12.5067 6.55043 12.6846L6.44747 12.7782L6.2041 12.2914L6.26026 12.2446Z" fill="#BBDDFC"/>
<path d="M6.85267 12.4976C6.77778 12.3385 6.72162 12.1606 6.5625 12.0576C6.62802 12.0108 6.71226 11.8985 6.76842 12.0389C6.81522 12.17 7.08667 12.2917 6.85267 12.4976Z" fill="#E5F2FE"/>
<path d="M7.8789 13.3212C7.6917 13.4055 7.5513 13.5365 7.39217 13.6582C7.39217 13.5927 7.39217 13.5272 7.38281 13.4616C7.57938 13.4148 7.68234 13.2089 7.86954 13.1621C7.8789 13.2276 7.8789 13.2744 7.8789 13.3212Z" fill="#B6DAFC"/>
<path d="M14.9775 9.40882C15.146 9.35266 15.2958 9.24969 15.4175 9.11865C15.4455 9.14673 15.5017 9.17481 15.4923 9.20289C15.4736 9.36202 15.1273 9.50242 14.9775 9.40882Z" fill="#EEFAFC"/>
<path d="M5.57626 12.9844C5.68859 13.1248 5.76347 13.2933 5.91323 13.4149L5.82899 13.5834L5.51074 13.078C5.52946 13.0405 5.55754 13.0125 5.57626 12.9844Z" fill="#63ACFC"/>
<path d="M5.96945 13.331L5.66992 12.8349C5.698 12.7975 5.73544 12.7694 5.76352 12.7319C5.92265 12.8723 6.07241 13.0221 6.00689 13.2748L5.96945 13.331Z" fill="#7ABAFC"/>
<path d="M5.9057 12.5815L6.20522 13.0215L6.11162 13.1338C5.93378 13.0402 5.88698 12.8436 5.80273 12.6845L5.9057 12.5815Z" fill="#8DC5FB"/>
<path d="M13.066 11.7109C13.1877 11.8326 13.2626 12.0011 13.4123 12.1041C13.2345 12.2164 13.1783 12.0385 13.1034 11.9543C13.066 11.8981 12.8882 11.8139 13.066 11.7109Z" fill="#F1F9FD"/>
<path d="M5.81088 12.6846C5.95128 12.8063 6.00744 12.9935 6.11976 13.1339L6.0168 13.2743C6.02616 13.0496 5.81088 12.9373 5.77344 12.7314L5.81088 12.6846Z" fill="#86C0FB"/>
<path d="M5.38143 14.744V14.7908C5.23166 14.8095 5.01638 14.7066 5.0351 14.9967C4.9883 14.8283 4.9883 14.6504 5.0351 14.4819C4.9883 14.7815 5.19422 14.7627 5.38143 14.744Z" fill="#1E82FE"/>
<path d="M11.8873 17.9736H10.2773C10.0246 17.9361 9.76253 17.9642 9.50981 17.9548C9.42557 17.9455 9.33197 17.9736 9.24772 17.9361H9.20092C9.14476 17.88 9.05116 17.8612 9.00436 17.8051C8.87332 17.646 8.68611 17.6085 8.48955 17.6085C8.38659 17.6085 8.24619 17.6647 8.18066 17.5056C8.995 17.4775 9.79998 17.5149 10.605 17.543C10.6798 17.543 10.7454 17.5711 10.7922 17.6272C10.9887 17.8425 11.2227 17.9829 11.541 17.9361C11.6439 17.9174 11.775 17.8893 11.8873 17.9736Z" fill="#006AFE"/>
<path d="M8.18055 17.4961C8.28351 17.5803 8.4052 17.5429 8.50816 17.5335C8.85448 17.4867 9.03233 17.6927 9.21017 17.9267C9.04169 17.9173 8.8732 17.9173 8.69536 17.936C8.33967 18.0015 8.10567 17.7863 7.8623 17.5897C7.91847 17.4961 8.03079 17.5803 8.07759 17.4961H8.18055Z" fill="#0167FE"/>
<path d="M9.24707 17.9264C9.58404 17.9545 9.93036 17.8796 10.2673 17.9732H9.24707V17.9264Z" fill="#0167FE"/>
<path d="M12.0371 17.5331C12.4209 17.4583 12.6923 17.6548 12.917 17.9263C12.5426 17.9824 12.2618 17.8139 12.0371 17.5331Z" fill="#067CFA"/>
<path d="M9.68771 9.01562L9.73451 9.10923L9.68771 9.15603C9.53794 9.38067 9.30394 9.493 9.09801 9.64276C9.06057 9.62404 9.04185 9.5866 9.05121 9.54916L9.68771 9.01562Z" fill="#2AB3EB"/>
<path d="M16.3052 10.9252C16.1648 10.7567 15.9776 10.6257 15.8652 10.4385H16.1554L16.2958 10.6538C16.352 10.7474 16.4081 10.8316 16.3052 10.9252Z" fill="#69D4EC"/>
<path d="M7.38281 12.7877C7.57002 12.7316 7.66362 12.5069 7.86954 12.4976C7.88826 12.7128 7.67298 12.7316 7.57938 12.8532C7.52322 12.9094 7.45769 12.9562 7.38281 12.9843V12.7877Z" fill="#90C8FA"/>
<path d="M12.9715 8.13561C12.906 8.26665 12.7656 8.31345 12.6533 8.38833C12.5971 8.42577 12.5316 8.44449 12.5316 8.52873H12.3818C12.541 8.34153 12.6626 8.10753 12.9715 8.13561Z" fill="#69D5EB"/>
</svg>
