<svg width="24" height="24" viewBox="0 0 24 24" fill="none" xmlns="http://www.w3.org/2000/svg">
<rect width="24" height="24" rx="4" fill="#FF0000" fill-opacity="0.1"/>
<path d="M8.75 7.75C7.90625 7.75 7.25 8.4375 7.25 9.25C7.25 10.0938 7.90625 10.75 8.75 10.75C9.5625 10.75 10.25 10.0938 10.25 9.25C10.25 8.4375 9.5625 7.75 8.75 7.75ZM17.9688 5H5.96875C4.875 5 3.96875 5.90625 3.96875 7V17C3.96875 18.125 4.875 19 5.96875 19H17.9688C19.0625 19 19.9688 18.125 19.9688 17V7C19.9688 5.90625 19.0938 5 17.9688 5ZM18.4688 16.8125L14.1875 11C14.0938 10.8438 13.9375 10.75 13.75 10.75C13.5312 10.75 13.375 10.8438 13.25 11L9.9375 15.5L8.78125 14.0625C8.65625 13.9375 8.5 13.8438 8.3125 13.8438C8.125 13.8438 7.96875 13.9375 7.84375 14.0625L5.5 17L5.46875 7C5.46875 6.75 5.71875 6.5 5.96875 6.5H17.9688C18.25 6.5 18.4688 6.75 18.4688 7V16.8125Z" fill="white"/>
</svg>
