<svg width="88" height="24" viewBox="0 0 88 24" fill="none" xmlns="http://www.w3.org/2000/svg">
<path d="M18.5 12C18.5 12.4375 18.1562 12.75 17.75 12.75H12.75V17.75C12.75 18.1875 12.4062 18.5312 12 18.5312C11.5625 18.5312 11.25 18.1875 11.25 17.75V12.75H6.25C5.8125 12.75 5.5 12.4375 5.5 12.0312C5.5 11.5938 5.8125 11.25 6.25 11.25H11.25V6.25C11.25 5.84375 11.5625 5.53125 12 5.53125C12.4062 5.53125 12.75 5.84375 12.75 6.25V11.25H17.75C18.1562 11.25 18.5 11.5938 18.5 12Z" fill="white"/>
<path d="M52.75 8.46875L48.25 4.25C47.9375 3.96875 47.4688 3.96875 47.1875 4.28125C46.9062 4.59375 46.9062 5.0625 47.2188 5.34375L50.3438 8.28125H45.25C43.9688 8.21875 42.7812 8.71875 41.9062 9.625C41 10.5312 40.5 11.7188 40.5 13V15.75C40.5 16.1562 40.8125 16.4688 41.25 16.4688C41.6562 16.4688 42 16.1875 42 15.75V13C42 12.125 42.3125 11.3125 42.9375 10.6875C43.5625 10.0938 44.3125 9.71875 45.25 9.75H50.3438L47.2188 12.7188C46.9062 13 46.9062 13.4688 47.1875 13.7812C47.3438 13.9062 47.5312 14.0312 47.7188 14.0312C47.9062 14.0312 48.0938 13.9375 48.25 13.8125L52.75 9.59375C52.9062 9.40625 53 9.21875 53 9C53 8.8125 52.9062 8.625 52.75 8.46875ZM46.25 16C45.8125 16 45.5 16.3438 45.5 16.75V18.2188C45.5 18.3438 45.375 18.4375 45.25 18.4375H36.75C36.5938 18.4375 36.5 18.3125 36.5 18.2188V9.75C36.5 9.625 36.5938 9.53125 36.75 9.53125H38.5C38.9062 9.53125 39.25 9.21875 39.25 8.8125C39.25 8.4375 38.9062 8.09375 38.5 8.09375H36.75C35.7812 8.09375 35 8.875 35 9.8125V18.2812C35 19.2188 35.7812 20 36.75 20H45.25C46.1875 20 47 19.2188 47 18.2812V16.8125C47 16.3438 46.6562 16 46.25 16Z" fill="white"/>
<path d="M76 15.5C76.8125 15.5 77.5 16.1875 77.5 17C77.5 17.8438 76.8125 18.5 76 18.5C75.1562 18.5 74.5 17.8438 74.5 17C74.5 16.1875 75.1562 15.5 76 15.5ZM76 10.5C76.8125 10.5 77.5 11.1875 77.5 12C77.5 12.8438 76.8125 13.5 76 13.5C75.1562 13.5 74.5 12.8438 74.5 12C74.5 11.1875 75.1562 10.5 76 10.5ZM76 8.5C75.1562 8.5 74.5 7.84375 74.5 7C74.5 6.1875 75.1562 5.5 76 5.5C76.8125 5.5 77.5 6.1875 77.5 7C77.5 7.84375 76.8125 8.5 76 8.5Z" fill="white"/>
</svg>
