<svg width="60" height="60" viewBox="0 0 60 60" fill="none" xmlns="http://www.w3.org/2000/svg">
<rect width="60" height="60" rx="6" fill="#262626"/>
<path d="M26.75 25.75C25.9062 25.75 25.25 26.4375 25.25 27.25C25.25 28.0938 25.9062 28.75 26.75 28.75C27.5625 28.75 28.25 28.0938 28.25 27.25C28.25 26.4375 27.5625 25.75 26.75 25.75ZM35.9688 23H23.9688C22.875 23 21.9688 23.9062 21.9688 25V35C21.9688 36.125 22.875 37 23.9688 37H35.9688C37.0625 37 37.9688 36.125 37.9688 35V25C37.9688 23.9062 37.0938 23 35.9688 23ZM36.4688 34.8125L32.1875 29C32.0938 28.8438 31.9375 28.75 31.75 28.75C31.5312 28.75 31.375 28.8438 31.25 29L27.9375 33.5L26.7812 32.0625C26.6562 31.9375 26.5 31.8438 26.3125 31.8438C26.125 31.8438 25.9688 31.9375 25.8438 32.0625L23.5 35L23.4688 25C23.4688 24.75 23.7188 24.5 23.9688 24.5H35.9688C36.25 24.5 36.4688 24.75 36.4688 25V34.8125Z" fill="white"/>
</svg>
