<svg width="60" height="60" viewBox="0 0 60 60" fill="none" xmlns="http://www.w3.org/2000/svg">
<rect width="60" height="60" rx="6" fill="#262626"/>
<path d="M27.875 26.625C28.0938 26.4688 28.4062 26.4688 28.625 26.625L33.125 29.375C33.3438 29.5 33.5 29.75 33.5 30C33.5 30.2812 33.3438 30.5312 33.125 30.6562L28.625 33.4062C28.4062 33.5312 28.0938 33.5625 27.875 33.4062C27.625 33.2812 27.5 33.0312 27.5 32.75V27.25C27.5 27 27.625 26.75 27.875 26.625ZM38 30C38 34.4375 34.4062 38 30 38C25.5625 38 22 34.4375 22 30C22 25.5938 25.5625 22 30 22C34.4062 22 38 25.5938 38 30ZM30 23.5C26.4062 23.5 23.5 26.4375 23.5 30C23.5 33.5938 26.4062 36.5 30 36.5C33.5625 36.5 36.5 33.5938 36.5 30C36.5 26.4375 33.5625 23.5 30 23.5Z" fill="white"/>
</svg>
