<svg width="60" height="60" viewBox="0 0 60 60" fill="none" xmlns="http://www.w3.org/2000/svg">
<rect width="60" height="60" rx="6" fill="#262626"/>
<path d="M39 37V30C39 25.0294 34.9706 21 30 21V21C25.0294 21 21 25.0294 21 30V37" stroke="white" stroke-width="1.2" stroke-linecap="round"/>
<path d="M34 33C34 31.8954 34.8954 31 36 31H37C38.1046 31 39 31.8954 39 33V37C39 38.1046 38.1046 39 37 39H36C34.8954 39 34 38.1046 34 37V33Z" fill="white" stroke="white" stroke-width="1.2"/>
<path d="M26 33C26 31.8954 25.1046 31 24 31H23C21.8954 31 21 31.8954 21 33V37C21 38.1046 21.8954 39 23 39H24C25.1046 39 26 38.1046 26 37V33Z" fill="white" stroke="white" stroke-width="1.2"/>
</svg>
