<svg width="60" height="60" viewBox="0 0 60 60" fill="none" xmlns="http://www.w3.org/2000/svg">
<rect width="60" height="60" rx="6" fill="#262626"/>
<path fill-rule="evenodd" clip-rule="evenodd" d="M32.25 19.2563C32.1881 19.2521 32.1258 19.25 32.0633 19.25H26C23.3766 19.25 21.25 21.3766 21.25 24V36C21.25 38.6234 23.3766 40.75 26 40.75H34C36.6234 40.75 38.75 38.6234 38.75 36V26.75H35C33.4812 26.75 32.25 25.5188 32.25 24V19.2563ZM25.25 30C25.25 29.5858 25.5858 29.25 26 29.25H34C34.4142 29.25 34.75 29.5858 34.75 30C34.75 30.4142 34.4142 30.75 34 30.75H26C25.5858 30.75 25.25 30.4142 25.25 30ZM26 34.25C25.5858 34.25 25.25 34.5858 25.25 35C25.25 35.4142 25.5858 35.75 26 35.75H30C30.4142 35.75 30.75 35.4142 30.75 35C30.75 34.5858 30.4142 34.25 30 34.25H26Z" fill="white"/>
<path d="M38.3215 25.25C38.2584 25.1506 38.1887 25.0549 38.1126 24.9636L34.1759 20.2395C34.048 20.086 33.905 19.9484 33.75 19.828V24C33.75 24.6904 34.3096 25.25 35 25.25H38.3215Z" fill="white"/>
</svg>
