<svg width="24" height="24" viewBox="0 0 24 24" fill="none" xmlns="http://www.w3.org/2000/svg">
<rect width="24" height="24" rx="4" fill="#2D2D2D"/>
<path d="M6 6C6.53125 6 7 6.46875 7 7C7 7.5625 6.53125 8 6 8C5.4375 8 5 7.5625 5 7C5 6.46875 5.4375 6 6 6ZM19.25 6.25C19.6562 6.25 20 6.59375 20 7C20 7.4375 19.6562 7.75 19.25 7.75H9.75C9.3125 7.75 9 7.4375 9 7C9 6.59375 9.3125 6.25 9.75 6.25H19.25ZM19.25 11.25C19.6562 11.25 20 11.5938 20 12C20 12.4375 19.6562 12.75 19.25 12.75H9.75C9.3125 12.75 9 12.4375 9 12C9 11.5938 9.3125 11.25 9.75 11.25H19.25ZM19.25 16.25C19.6562 16.25 20 16.5938 20 17C20 17.4375 19.6562 17.75 19.25 17.75H9.75C9.3125 17.75 9 17.4375 9 17C9 16.5938 9.3125 16.25 9.75 16.25H19.25ZM6 13C5.4375 13 5 12.5625 5 12C5 11.4688 5.4375 11 6 11C6.53125 11 7 11.4688 7 12C7 12.5625 6.53125 13 6 13ZM6 16C6.53125 16 7 16.4688 7 17C7 17.5625 6.53125 18 6 18C5.4375 18 5 17.5625 5 17C5 16.4688 5.4375 16 6 16Z" fill="white"/>
</svg>
