<svg width="20" height="20" viewBox="0 0 20 20" fill="none" xmlns="http://www.w3.org/2000/svg">
<path fill-rule="evenodd" clip-rule="evenodd" d="M8.33333 13.3333C11.0948 13.3333 13.3333 11.0948 13.3333 8.33333C13.3333 5.57191 11.0948 3.33333 8.33333 3.33333C5.57191 3.33333 3.33333 5.57191 3.33333 8.33333C3.33333 11.0948 5.57191 13.3333 8.33333 13.3333ZM8.33333 14.1667C11.555 14.1667 14.1667 11.555 14.1667 8.33333C14.1667 5.11167 11.555 2.5 8.33333 2.5C5.11167 2.5 2.5 5.11167 2.5 8.33333C2.5 11.555 5.11167 14.1667 8.33333 14.1667Z" fill="white"/>
<path fill-rule="evenodd" clip-rule="evenodd" d="M12.206 12.2055C12.3687 12.0428 12.6326 12.0428 12.7953 12.2055L17.3786 16.7889C17.5413 16.9516 17.5413 17.2154 17.3786 17.3781C17.2159 17.5408 16.9521 17.5408 16.7894 17.3781L12.206 12.7948C12.0433 12.6321 12.0433 12.3683 12.206 12.2055Z" fill="white"/>
</svg>
