<svg width="17" height="14" viewBox="0 0 17 14" fill="none" xmlns="http://www.w3.org/2000/svg">
<path d="M5.75 2.75C4.90625 2.75 4.25 3.4375 4.25 4.25C4.25 5.09375 4.90625 5.75 5.75 5.75C6.5625 5.75 7.25 5.09375 7.25 4.25C7.25 3.4375 6.5625 2.75 5.75 2.75ZM14.9688 0H2.96875C1.875 0 0.96875 0.90625 0.96875 2V12C0.96875 13.125 1.875 14 2.96875 14H14.9688C16.0625 14 16.9688 13.125 16.9688 12V2C16.9688 0.90625 16.0938 0 14.9688 0ZM15.4688 11.8125L11.1875 6C11.0938 5.84375 10.9375 5.75 10.75 5.75C10.5312 5.75 10.375 5.84375 10.25 6L6.9375 10.5L5.78125 9.0625C5.65625 8.9375 5.5 8.84375 5.3125 8.84375C5.125 8.84375 4.96875 8.9375 4.84375 9.0625L2.5 12L2.46875 2C2.46875 1.75 2.71875 1.5 2.96875 1.5H14.9688C15.25 1.5 15.4688 1.75 15.4688 2V11.8125Z" fill="#2D2D2D"/>
</svg>
